<svg width="420" height="640" viewBox="0 0 420 640" fill="none" xmlns="http://www.w3.org/2000/svg">
<rect width="420" height="640" fill="#826F66"/>
<mask id="path-1-inside-1_1_602" fill="white">
<path d="M179.587 244.551C178.806 243.77 178.806 242.503 179.587 241.722L184.181 237.128C188.867 232.442 196.465 232.442 201.152 237.128L205.746 241.722C206.527 242.503 206.527 243.77 205.746 244.551L201.152 249.145C196.465 253.831 188.867 253.831 184.181 249.145L179.587 244.551Z"/>
</mask>
<path d="M179.587 244.551C178.806 243.77 178.806 242.503 179.587 241.722L184.181 237.128C188.867 232.442 196.465 232.442 201.152 237.128L205.746 241.722C206.527 242.503 206.527 243.77 205.746 244.551L201.152 249.145C196.465 253.831 188.867 253.831 184.181 249.145L179.587 244.551Z" stroke="white" stroke-width="8" mask="url(#path-1-inside-1_1_602)"/>
<mask id="path-2-inside-2_1_602" fill="white">
<path d="M213.69 244.551C212.909 243.77 212.909 242.503 213.69 241.722L218.284 237.128C222.97 232.442 230.568 232.442 235.254 237.128L239.849 241.722C240.63 242.503 240.63 243.77 239.849 244.551L235.254 249.145C230.568 253.831 222.97 253.831 218.284 249.145L213.69 244.551Z"/>
</mask>
<path d="M213.69 244.551C212.909 243.77 212.909 242.503 213.69 241.722L218.284 237.128C222.97 232.442 230.568 232.442 235.254 237.128L239.849 241.722C240.63 242.503 240.63 243.77 239.849 244.551L235.254 249.145C230.568 253.831 222.97 253.831 218.284 249.145L213.69 244.551Z" stroke="white" stroke-width="8" mask="url(#path-2-inside-2_1_602)"/>
<mask id="path-3-inside-3_1_602" fill="white">
<path d="M208.304 213.006C209.085 212.224 210.351 212.224 211.132 213.006L215.726 217.6C220.412 222.286 220.412 229.884 215.726 234.57L211.132 239.165C210.351 239.946 209.085 239.946 208.303 239.165L203.709 234.57C199.023 229.884 199.023 222.286 203.709 217.6L208.304 213.006Z"/>
</mask>
<path d="M208.304 213.006C209.085 212.224 210.351 212.224 211.132 213.006L215.726 217.6C220.412 222.286 220.412 229.884 215.726 234.57L211.132 239.165C210.351 239.946 209.085 239.946 208.303 239.165L203.709 234.57C199.023 229.884 199.023 222.286 203.709 217.6L208.304 213.006Z" stroke="white" stroke-width="8" mask="url(#path-3-inside-3_1_602)"/>
<mask id="path-4-inside-4_1_602" fill="white">
<path d="M208.08 245.414C208.861 244.633 210.127 244.633 210.908 245.414L215.502 250.008C220.189 254.695 220.189 262.293 215.502 266.979L210.908 271.573C210.127 272.354 208.861 272.354 208.08 271.573L203.485 266.979C198.799 262.293 198.799 254.695 203.485 250.008L208.08 245.414Z"/>
</mask>
<path d="M208.08 245.414C208.861 244.633 210.127 244.633 210.908 245.414L215.502 250.008C220.189 254.695 220.189 262.293 215.502 266.979L210.908 271.573C210.127 272.354 208.861 272.354 208.08 271.573L203.485 266.979C198.799 262.293 198.799 254.695 203.485 250.008L208.08 245.414Z" stroke="white" stroke-width="8" mask="url(#path-4-inside-4_1_602)"/>
<path d="M217.574 204.483C219.901 204.289 221.892 204.319 223.732 204.973C224.95 205.406 225.858 206.397 227.002 207.969C228.032 209.385 229.351 211.456 231.27 212.809C233.404 214.314 236.273 215.332 238.397 216.235C240.781 217.247 242.253 218.113 242.895 219.184C243.708 220.542 244.115 222.226 244.482 224.368C244.833 226.411 245.15 228.917 245.892 231.366C246.552 233.547 247.949 235.834 248.933 237.689C250.009 239.719 250.716 241.417 250.716 243C250.716 244.514 250.063 245.851 249.011 247.511C248.043 249.038 246.58 251.027 245.892 253.3C245.128 255.823 244.994 258.695 244.738 260.934C244.463 263.342 244.047 265.225 242.995 266.664C241.952 268.091 240.283 269.071 238.083 270.08C236.043 271.016 233.375 272.032 231.27 273.516C229.377 274.85 228.064 276.808 227.032 278.154C225.904 279.625 224.988 280.58 223.732 281.027C221.892 281.68 219.901 281.711 217.574 281.518C215.383 281.336 212.627 280.911 210 280.911C207.373 280.911 204.617 281.336 202.426 281.518C200.099 281.711 198.108 281.68 196.268 281.027C194.588 280.43 193.239 279.372 191.8 278.004C190.444 276.716 188.824 274.946 186.983 273.555C185.188 272.198 182.973 271.084 181.263 270.088C179.433 269.023 177.979 267.997 177.005 266.664C175.893 265.143 175.302 263.165 174.828 260.773C174.385 258.536 174.021 255.713 173.29 253.3C172.635 251.136 171.454 249.194 170.67 247.667C169.837 246.046 169.284 244.639 169.284 243C169.284 241.417 169.991 239.719 171.067 237.689C172.051 235.834 173.448 233.547 174.108 231.366C174.865 228.866 175.005 226.342 175.258 224.435C175.523 222.432 175.919 220.822 177.005 219.336C177.956 218.034 179.375 217.093 181.205 216.107C182.912 215.187 185.152 214.153 186.983 212.77C188.856 211.355 190.477 209.488 191.84 208.119C193.292 206.661 194.626 205.556 196.268 204.973C198.108 204.319 200.099 204.289 202.426 204.483C204.617 204.665 207.373 205.088 210 205.088C212.627 205.088 215.383 204.665 217.574 204.483Z" stroke="white" stroke-width="4"/>
<path d="M74.9091 337.622V325.985H76.3182V331.167H82.5227V325.985H83.9318V337.622H82.5227V332.417H76.3182V337.622H74.9091ZM89.1392 337.826C88.5862 337.826 88.0843 337.722 87.6335 337.514C87.1828 337.302 86.8248 336.997 86.5597 336.599C86.2945 336.198 86.1619 335.713 86.1619 335.145C86.1619 334.645 86.2604 334.239 86.4574 333.929C86.6544 333.614 86.9176 333.368 87.2472 333.19C87.5767 333.012 87.9403 332.879 88.3381 332.792C88.7396 332.701 89.143 332.629 89.5483 332.576C90.0786 332.508 90.5085 332.457 90.8381 332.423C91.1714 332.385 91.4138 332.323 91.5653 332.235C91.7206 332.148 91.7983 331.997 91.7983 331.781V331.735C91.7983 331.175 91.6449 330.739 91.3381 330.429C91.035 330.118 90.5748 329.963 89.9574 329.963C89.3172 329.963 88.8153 330.103 88.4517 330.383C88.0881 330.663 87.8324 330.963 87.6847 331.281L86.4119 330.826C86.6392 330.296 86.9422 329.883 87.321 329.588C87.7036 329.288 88.1203 329.08 88.571 328.963C89.0256 328.842 89.4725 328.781 89.9119 328.781C90.1922 328.781 90.5142 328.815 90.8778 328.883C91.2453 328.948 91.5994 329.082 91.9403 329.287C92.285 329.491 92.571 329.8 92.7983 330.213C93.0256 330.626 93.1392 331.179 93.1392 331.872V337.622H91.7983V336.44H91.7301C91.6392 336.629 91.4877 336.832 91.2756 337.048C91.0634 337.264 90.7813 337.448 90.429 337.599C90.0767 337.751 89.6468 337.826 89.1392 337.826ZM89.3438 336.622C89.8741 336.622 90.321 336.518 90.6847 336.309C91.0521 336.101 91.3286 335.832 91.5142 335.503C91.7036 335.173 91.7983 334.826 91.7983 334.463V333.235C91.7415 333.304 91.6165 333.366 91.4233 333.423C91.2339 333.476 91.0142 333.523 90.7642 333.565C90.518 333.603 90.2775 333.637 90.0426 333.667C89.8116 333.694 89.6241 333.717 89.4801 333.735C89.1316 333.781 88.8059 333.855 88.5028 333.957C88.2036 334.056 87.9612 334.205 87.7756 334.406C87.5938 334.603 87.5028 334.872 87.5028 335.213C87.5028 335.679 87.6752 336.031 88.0199 336.27C88.3684 336.504 88.8097 336.622 89.3438 336.622ZM96.9276 332.372V337.622H95.5866V328.895H96.8821V330.258H96.9957C97.2003 329.815 97.5109 329.459 97.9276 329.19C98.3442 328.917 98.8821 328.781 99.5412 328.781C100.132 328.781 100.649 328.902 101.092 329.145C101.536 329.383 101.88 329.747 102.126 330.235C102.373 330.72 102.496 331.334 102.496 332.076V337.622H101.155V332.167C101.155 331.482 100.977 330.948 100.621 330.565C100.265 330.179 99.776 329.985 99.1548 329.985C98.7268 329.985 98.3442 330.078 98.0071 330.264C97.6738 330.449 97.4105 330.72 97.2173 331.076C97.0241 331.432 96.9276 331.864 96.9276 332.372ZM108.241 337.804C107.514 337.804 106.872 337.62 106.315 337.253C105.759 336.881 105.323 336.359 105.009 335.684C104.694 335.006 104.537 334.205 104.537 333.281C104.537 332.364 104.694 331.569 105.009 330.895C105.323 330.22 105.76 329.699 106.321 329.332C106.882 328.965 107.529 328.781 108.264 328.781C108.832 328.781 109.281 328.876 109.611 329.065C109.944 329.251 110.198 329.463 110.372 329.701C110.55 329.936 110.688 330.129 110.787 330.281H110.901V325.985H112.241V337.622H110.946V336.281H110.787C110.688 336.44 110.548 336.641 110.366 336.883C110.185 337.122 109.925 337.336 109.588 337.525C109.251 337.711 108.802 337.804 108.241 337.804ZM108.423 336.599C108.961 336.599 109.416 336.459 109.787 336.179C110.158 335.895 110.44 335.503 110.634 335.003C110.827 334.499 110.923 333.917 110.923 333.258C110.923 332.607 110.829 332.037 110.639 331.548C110.45 331.056 110.17 330.673 109.798 330.4C109.427 330.124 108.969 329.985 108.423 329.985C107.855 329.985 107.382 330.131 107.003 330.423C106.628 330.711 106.346 331.103 106.156 331.599C105.971 332.092 105.878 332.645 105.878 333.258C105.878 333.879 105.973 334.444 106.162 334.951C106.355 335.455 106.639 335.857 107.014 336.156C107.393 336.451 107.863 336.599 108.423 336.599ZM118.429 337.804C117.611 337.804 116.906 337.61 116.315 337.224C115.724 336.838 115.27 336.306 114.952 335.628C114.634 334.949 114.474 334.175 114.474 333.304C114.474 332.417 114.637 331.635 114.963 330.957C115.293 330.275 115.751 329.743 116.338 329.36C116.929 328.974 117.618 328.781 118.406 328.781C119.02 328.781 119.573 328.895 120.065 329.122C120.558 329.349 120.961 329.667 121.276 330.076C121.59 330.485 121.785 330.963 121.861 331.508H120.52C120.418 331.11 120.19 330.758 119.838 330.451C119.49 330.141 119.02 329.985 118.429 329.985C117.906 329.985 117.448 330.122 117.054 330.395C116.664 330.663 116.359 331.044 116.139 331.537C115.923 332.025 115.815 332.599 115.815 333.258C115.815 333.932 115.921 334.52 116.134 335.02C116.349 335.52 116.652 335.908 117.043 336.184C117.437 336.461 117.899 336.599 118.429 336.599C118.777 336.599 119.094 336.538 119.378 336.417C119.662 336.296 119.902 336.122 120.099 335.895C120.296 335.667 120.437 335.395 120.52 335.076H121.861C121.785 335.592 121.598 336.056 121.298 336.468C121.003 336.878 120.611 337.203 120.122 337.446C119.637 337.684 119.073 337.804 118.429 337.804ZM123.821 337.622V328.895H125.116V330.213H125.207C125.366 329.781 125.654 329.431 126.071 329.162C126.488 328.893 126.957 328.758 127.48 328.758C127.579 328.758 127.702 328.76 127.849 328.764C127.997 328.768 128.109 328.773 128.185 328.781V330.145C128.139 330.133 128.035 330.116 127.872 330.093C127.713 330.067 127.545 330.054 127.366 330.054C126.942 330.054 126.563 330.143 126.23 330.321C125.901 330.495 125.639 330.737 125.446 331.048C125.257 331.355 125.162 331.705 125.162 332.099V337.622H123.821ZM132.342 337.826C131.789 337.826 131.287 337.722 130.837 337.514C130.386 337.302 130.028 336.997 129.763 336.599C129.498 336.198 129.365 335.713 129.365 335.145C129.365 334.645 129.464 334.239 129.661 333.929C129.857 333.614 130.121 333.368 130.45 333.19C130.78 333.012 131.143 332.879 131.541 332.792C131.943 332.701 132.346 332.629 132.751 332.576C133.282 332.508 133.712 332.457 134.041 332.423C134.375 332.385 134.617 332.323 134.768 332.235C134.924 332.148 135.001 331.997 135.001 331.781V331.735C135.001 331.175 134.848 330.739 134.541 330.429C134.238 330.118 133.778 329.963 133.161 329.963C132.52 329.963 132.018 330.103 131.655 330.383C131.291 330.663 131.036 330.963 130.888 331.281L129.615 330.826C129.842 330.296 130.145 329.883 130.524 329.588C130.907 329.288 131.323 329.08 131.774 328.963C132.229 328.842 132.676 328.781 133.115 328.781C133.395 328.781 133.717 328.815 134.081 328.883C134.448 328.948 134.803 329.082 135.143 329.287C135.488 329.491 135.774 329.8 136.001 330.213C136.229 330.626 136.342 331.179 136.342 331.872V337.622H135.001V336.44H134.933C134.842 336.629 134.691 336.832 134.479 337.048C134.267 337.264 133.984 337.448 133.632 337.599C133.28 337.751 132.85 337.826 132.342 337.826ZM132.547 336.622C133.077 336.622 133.524 336.518 133.888 336.309C134.255 336.101 134.532 335.832 134.717 335.503C134.907 335.173 135.001 334.826 135.001 334.463V333.235C134.945 333.304 134.82 333.366 134.626 333.423C134.437 333.476 134.217 333.523 133.967 333.565C133.721 333.603 133.481 333.637 133.246 333.667C133.015 333.694 132.827 333.717 132.683 333.735C132.335 333.781 132.009 333.855 131.706 333.957C131.407 334.056 131.164 334.205 130.979 334.406C130.797 334.603 130.706 334.872 130.706 335.213C130.706 335.679 130.878 336.031 131.223 336.27C131.571 336.504 132.013 336.622 132.547 336.622ZM142.676 328.895V330.031H137.972V328.895H142.676ZM139.381 337.622V327.69C139.381 327.19 139.498 326.773 139.733 326.44C139.968 326.107 140.273 325.857 140.648 325.69C141.023 325.523 141.419 325.44 141.835 325.44C142.165 325.44 142.434 325.467 142.642 325.52C142.85 325.573 143.006 325.622 143.108 325.667L142.722 326.826C142.653 326.804 142.559 326.775 142.438 326.741C142.32 326.707 142.165 326.69 141.972 326.69C141.528 326.69 141.208 326.802 141.011 327.025C140.818 327.249 140.722 327.576 140.722 328.008V337.622H139.381ZM148.351 328.895V330.031H143.828V328.895H148.351ZM145.146 326.804H146.487V335.122C146.487 335.501 146.542 335.785 146.652 335.974C146.766 336.16 146.91 336.285 147.084 336.349C147.262 336.41 147.449 336.44 147.646 336.44C147.794 336.44 147.915 336.432 148.01 336.417C148.105 336.398 148.18 336.383 148.237 336.372L148.51 337.576C148.419 337.61 148.292 337.645 148.129 337.679C147.966 337.717 147.76 337.735 147.51 337.735C147.131 337.735 146.76 337.654 146.396 337.491C146.036 337.328 145.737 337.08 145.499 336.747C145.264 336.413 145.146 335.993 145.146 335.485V326.804ZM153.933 337.804C153.092 337.804 152.367 337.618 151.757 337.247C151.151 336.872 150.683 336.349 150.354 335.679C150.028 335.004 149.865 334.22 149.865 333.326C149.865 332.432 150.028 331.645 150.354 330.963C150.683 330.277 151.142 329.743 151.729 329.36C152.32 328.974 153.009 328.781 153.797 328.781C154.251 328.781 154.7 328.857 155.143 329.008C155.587 329.16 155.99 329.406 156.354 329.747C156.717 330.084 157.007 330.531 157.223 331.088C157.439 331.645 157.547 332.33 157.547 333.145V333.713H150.82V332.554H156.183C156.183 332.061 156.085 331.622 155.888 331.235C155.695 330.849 155.418 330.544 155.058 330.321C154.702 330.097 154.282 329.985 153.797 329.985C153.263 329.985 152.801 330.118 152.411 330.383C152.024 330.645 151.727 330.985 151.518 331.406C151.31 331.826 151.206 332.277 151.206 332.758V333.531C151.206 334.19 151.32 334.749 151.547 335.207C151.778 335.662 152.098 336.008 152.507 336.247C152.916 336.482 153.392 336.599 153.933 336.599C154.286 336.599 154.604 336.55 154.888 336.451C155.176 336.349 155.424 336.198 155.632 335.997C155.84 335.792 156.001 335.538 156.115 335.235L157.411 335.599C157.274 336.038 157.045 336.425 156.723 336.758C156.401 337.088 156.003 337.345 155.53 337.531C155.056 337.713 154.524 337.804 153.933 337.804ZM162.882 337.804C162.155 337.804 161.513 337.62 160.956 337.253C160.399 336.881 159.964 336.359 159.649 335.684C159.335 335.006 159.178 334.205 159.178 333.281C159.178 332.364 159.335 331.569 159.649 330.895C159.964 330.22 160.401 329.699 160.962 329.332C161.522 328.965 162.17 328.781 162.905 328.781C163.473 328.781 163.922 328.876 164.251 329.065C164.585 329.251 164.839 329.463 165.013 329.701C165.191 329.936 165.329 330.129 165.428 330.281H165.541V325.985H166.882V337.622H165.587V336.281H165.428C165.329 336.44 165.189 336.641 165.007 336.883C164.825 337.122 164.566 337.336 164.229 337.525C163.892 337.711 163.443 337.804 162.882 337.804ZM163.064 336.599C163.602 336.599 164.056 336.459 164.428 336.179C164.799 335.895 165.081 335.503 165.274 335.003C165.467 334.499 165.564 333.917 165.564 333.258C165.564 332.607 165.469 332.037 165.28 331.548C165.09 331.056 164.81 330.673 164.439 330.4C164.068 330.124 163.609 329.985 163.064 329.985C162.496 329.985 162.022 330.131 161.643 330.423C161.268 330.711 160.986 331.103 160.797 331.599C160.611 332.092 160.518 332.645 160.518 333.258C160.518 333.879 160.613 334.444 160.803 334.951C160.996 335.455 161.28 335.857 161.655 336.156C162.034 336.451 162.503 336.599 163.064 336.599ZM174.024 337.622V328.895H175.365V337.622H174.024ZM174.706 327.44C174.445 327.44 174.219 327.351 174.03 327.173C173.844 326.995 173.751 326.781 173.751 326.531C173.751 326.281 173.844 326.067 174.03 325.889C174.219 325.711 174.445 325.622 174.706 325.622C174.967 325.622 175.191 325.711 175.376 325.889C175.566 326.067 175.661 326.281 175.661 326.531C175.661 326.781 175.566 326.995 175.376 327.173C175.191 327.351 174.967 327.44 174.706 327.44ZM179.162 332.372V337.622H177.821V328.895H179.116V330.258H179.23C179.435 329.815 179.745 329.459 180.162 329.19C180.579 328.917 181.116 328.781 181.776 328.781C182.366 328.781 182.884 328.902 183.327 329.145C183.77 329.383 184.115 329.747 184.361 330.235C184.607 330.72 184.73 331.334 184.73 332.076V337.622H183.389V332.167C183.389 331.482 183.211 330.948 182.855 330.565C182.499 330.179 182.01 329.985 181.389 329.985C180.961 329.985 180.579 330.078 180.241 330.264C179.908 330.449 179.645 330.72 179.452 331.076C179.259 331.432 179.162 331.864 179.162 332.372ZM192.339 325.985L195.794 335.781H195.93L199.385 325.985H200.862L196.589 337.622H195.135L190.862 325.985H192.339ZM202.493 337.622V328.895H203.834V337.622H202.493ZM203.175 327.44C202.913 327.44 202.688 327.351 202.499 327.173C202.313 326.995 202.22 326.781 202.22 326.531C202.22 326.281 202.313 326.067 202.499 325.889C202.688 325.711 202.913 325.622 203.175 325.622C203.436 325.622 203.66 325.711 203.845 325.889C204.035 326.067 204.129 326.281 204.129 326.531C204.129 326.781 204.035 326.995 203.845 327.173C203.66 327.351 203.436 327.44 203.175 327.44ZM209.949 337.804C209.108 337.804 208.383 337.618 207.773 337.247C207.167 336.872 206.699 336.349 206.369 335.679C206.044 335.004 205.881 334.22 205.881 333.326C205.881 332.432 206.044 331.645 206.369 330.963C206.699 330.277 207.157 329.743 207.744 329.36C208.335 328.974 209.025 328.781 209.812 328.781C210.267 328.781 210.716 328.857 211.159 329.008C211.602 329.16 212.006 329.406 212.369 329.747C212.733 330.084 213.023 330.531 213.239 331.088C213.455 331.645 213.562 332.33 213.562 333.145V333.713H206.835V332.554H212.199C212.199 332.061 212.1 331.622 211.903 331.235C211.71 330.849 211.434 330.544 211.074 330.321C210.718 330.097 210.297 329.985 209.812 329.985C209.278 329.985 208.816 330.118 208.426 330.383C208.04 330.645 207.742 330.985 207.534 331.406C207.326 331.826 207.222 332.277 207.222 332.758V333.531C207.222 334.19 207.335 334.749 207.562 335.207C207.794 335.662 208.114 336.008 208.523 336.247C208.932 336.482 209.407 336.599 209.949 336.599C210.301 336.599 210.619 336.55 210.903 336.451C211.191 336.349 211.439 336.198 211.648 335.997C211.856 335.792 212.017 335.538 212.131 335.235L213.426 335.599C213.29 336.038 213.061 336.425 212.739 336.758C212.417 337.088 212.019 337.345 211.545 337.531C211.072 337.713 210.54 337.804 209.949 337.804ZM219.398 328.895V330.031H214.875V328.895H219.398ZM216.193 326.804H217.534V335.122C217.534 335.501 217.589 335.785 217.699 335.974C217.813 336.16 217.956 336.285 218.131 336.349C218.309 336.41 218.496 336.44 218.693 336.44C218.841 336.44 218.962 336.432 219.057 336.417C219.152 336.398 219.227 336.383 219.284 336.372L219.557 337.576C219.466 337.61 219.339 337.645 219.176 337.679C219.013 337.717 218.807 337.735 218.557 337.735C218.178 337.735 217.807 337.654 217.443 337.491C217.083 337.328 216.784 337.08 216.545 336.747C216.311 336.413 216.193 335.993 216.193 335.485V326.804ZM235.324 325.985V337.622H233.96L227.619 328.485H227.506V337.622H226.097V325.985H227.46L233.824 335.145H233.938V325.985H235.324ZM240.53 337.826C239.977 337.826 239.475 337.722 239.024 337.514C238.573 337.302 238.215 336.997 237.95 336.599C237.685 336.198 237.553 335.713 237.553 335.145C237.553 334.645 237.651 334.239 237.848 333.929C238.045 333.614 238.308 333.368 238.638 333.19C238.967 333.012 239.331 332.879 239.729 332.792C240.13 332.701 240.534 332.629 240.939 332.576C241.469 332.508 241.899 332.457 242.229 332.423C242.562 332.385 242.804 332.323 242.956 332.235C243.111 332.148 243.189 331.997 243.189 331.781V331.735C243.189 331.175 243.036 330.739 242.729 330.429C242.426 330.118 241.965 329.963 241.348 329.963C240.708 329.963 240.206 330.103 239.842 330.383C239.479 330.663 239.223 330.963 239.075 331.281L237.803 330.826C238.03 330.296 238.333 329.883 238.712 329.588C239.094 329.288 239.511 329.08 239.962 328.963C240.416 328.842 240.863 328.781 241.303 328.781C241.583 328.781 241.905 328.815 242.268 328.883C242.636 328.948 242.99 329.082 243.331 329.287C243.676 329.491 243.962 329.8 244.189 330.213C244.416 330.626 244.53 331.179 244.53 331.872V337.622H243.189V336.44H243.121C243.03 336.629 242.878 336.832 242.666 337.048C242.454 337.264 242.172 337.448 241.82 337.599C241.467 337.751 241.037 337.826 240.53 337.826ZM240.734 336.622C241.265 336.622 241.712 336.518 242.075 336.309C242.443 336.101 242.719 335.832 242.905 335.503C243.094 335.173 243.189 334.826 243.189 334.463V333.235C243.132 333.304 243.007 333.366 242.814 333.423C242.625 333.476 242.405 333.523 242.155 333.565C241.909 333.603 241.668 333.637 241.433 333.667C241.202 333.694 241.015 333.717 240.871 333.735C240.522 333.781 240.196 333.855 239.893 333.957C239.594 334.056 239.352 334.205 239.166 334.406C238.984 334.603 238.893 334.872 238.893 335.213C238.893 335.679 239.066 336.031 239.411 336.27C239.759 336.504 240.2 336.622 240.734 336.622ZM246.977 337.622V328.895H248.273V330.258H248.386C248.568 329.792 248.862 329.431 249.267 329.173C249.672 328.912 250.159 328.781 250.727 328.781C251.303 328.781 251.782 328.912 252.165 329.173C252.551 329.431 252.852 329.792 253.068 330.258H253.159C253.383 329.807 253.718 329.449 254.165 329.184C254.612 328.915 255.148 328.781 255.773 328.781C256.553 328.781 257.191 329.025 257.688 329.514C258.184 329.999 258.432 330.754 258.432 331.781V337.622H257.091V331.781C257.091 331.137 256.915 330.677 256.562 330.4C256.21 330.124 255.795 329.985 255.318 329.985C254.705 329.985 254.229 330.171 253.892 330.542C253.555 330.91 253.386 331.376 253.386 331.94V337.622H252.023V331.645C252.023 331.148 251.862 330.749 251.54 330.446C251.218 330.139 250.803 329.985 250.295 329.985C249.947 329.985 249.621 330.078 249.318 330.264C249.019 330.449 248.777 330.707 248.591 331.037C248.409 331.362 248.318 331.739 248.318 332.167V337.622H246.977ZM271.565 330.849L270.361 331.19C270.285 330.989 270.173 330.794 270.026 330.605C269.882 330.412 269.685 330.253 269.435 330.128C269.185 330.003 268.865 329.94 268.474 329.94C267.94 329.94 267.495 330.063 267.139 330.309C266.787 330.552 266.611 330.86 266.611 331.235C266.611 331.569 266.732 331.832 266.974 332.025C267.217 332.218 267.596 332.379 268.111 332.508L269.406 332.826C270.187 333.016 270.768 333.306 271.151 333.696C271.533 334.082 271.724 334.58 271.724 335.19C271.724 335.69 271.58 336.137 271.293 336.531C271.009 336.925 270.611 337.235 270.099 337.463C269.588 337.69 268.993 337.804 268.315 337.804C267.425 337.804 266.688 337.61 266.105 337.224C265.522 336.838 265.152 336.273 264.997 335.531L266.27 335.213C266.391 335.682 266.62 336.035 266.957 336.27C267.298 336.504 267.743 336.622 268.293 336.622C268.918 336.622 269.414 336.489 269.781 336.224C270.152 335.955 270.338 335.633 270.338 335.258C270.338 334.955 270.232 334.701 270.02 334.497C269.808 334.288 269.482 334.133 269.043 334.031L267.588 333.69C266.789 333.501 266.202 333.207 265.827 332.809C265.455 332.408 265.27 331.906 265.27 331.304C265.27 330.811 265.408 330.376 265.685 329.997C265.965 329.618 266.346 329.321 266.827 329.105C267.312 328.889 267.861 328.781 268.474 328.781C269.338 328.781 270.016 328.97 270.509 329.349C271.005 329.728 271.357 330.228 271.565 330.849ZM273.743 337.622V328.895H275.084V337.622H273.743ZM274.425 327.44C274.163 327.44 273.938 327.351 273.749 327.173C273.563 326.995 273.47 326.781 273.47 326.531C273.47 326.281 273.563 326.067 273.749 325.889C273.938 325.711 274.163 325.622 274.425 325.622C274.686 325.622 274.91 325.711 275.095 325.889C275.285 326.067 275.379 326.281 275.379 326.531C275.379 326.781 275.285 326.995 275.095 327.173C274.91 327.351 274.686 327.44 274.425 327.44ZM278.881 332.372V337.622H277.54V328.895H278.835V330.258H278.949C279.153 329.815 279.464 329.459 279.881 329.19C280.297 328.917 280.835 328.781 281.494 328.781C282.085 328.781 282.602 328.902 283.045 329.145C283.489 329.383 283.833 329.747 284.08 330.235C284.326 330.72 284.449 331.334 284.449 332.076V337.622H283.108V332.167C283.108 331.482 282.93 330.948 282.574 330.565C282.218 330.179 281.729 329.985 281.108 329.985C280.68 329.985 280.297 330.078 279.96 330.264C279.627 330.449 279.364 330.72 279.17 331.076C278.977 331.432 278.881 331.864 278.881 332.372ZM290.445 337.804C289.626 337.804 288.922 337.61 288.331 337.224C287.74 336.838 287.286 336.306 286.967 335.628C286.649 334.949 286.49 334.175 286.49 333.304C286.49 332.417 286.653 331.635 286.979 330.957C287.308 330.275 287.767 329.743 288.354 329.36C288.945 328.974 289.634 328.781 290.422 328.781C291.036 328.781 291.589 328.895 292.081 329.122C292.573 329.349 292.977 329.667 293.291 330.076C293.606 330.485 293.801 330.963 293.876 331.508H292.536C292.433 331.11 292.206 330.758 291.854 330.451C291.505 330.141 291.036 329.985 290.445 329.985C289.922 329.985 289.464 330.122 289.07 330.395C288.679 330.663 288.375 331.044 288.155 331.537C287.939 332.025 287.831 332.599 287.831 333.258C287.831 333.932 287.937 334.52 288.149 335.02C288.365 335.52 288.668 335.908 289.058 336.184C289.452 336.461 289.914 336.599 290.445 336.599C290.793 336.599 291.109 336.538 291.393 336.417C291.678 336.296 291.918 336.122 292.115 335.895C292.312 335.667 292.452 335.395 292.536 335.076H293.876C293.801 335.592 293.613 336.056 293.314 336.468C293.018 336.878 292.626 337.203 292.138 337.446C291.653 337.684 291.089 337.804 290.445 337.804ZM299.496 337.804C298.655 337.804 297.929 337.618 297.32 337.247C296.714 336.872 296.246 336.349 295.916 335.679C295.59 335.004 295.428 334.22 295.428 333.326C295.428 332.432 295.59 331.645 295.916 330.963C296.246 330.277 296.704 329.743 297.291 329.36C297.882 328.974 298.571 328.781 299.359 328.781C299.814 328.781 300.263 328.857 300.706 329.008C301.149 329.16 301.553 329.406 301.916 329.747C302.28 330.084 302.57 330.531 302.786 331.088C303.001 331.645 303.109 332.33 303.109 333.145V333.713H296.382V332.554H301.746C301.746 332.061 301.647 331.622 301.45 331.235C301.257 330.849 300.981 330.544 300.621 330.321C300.265 330.097 299.844 329.985 299.359 329.985C298.825 329.985 298.363 330.118 297.973 330.383C297.587 330.645 297.289 330.985 297.081 331.406C296.873 331.826 296.768 332.277 296.768 332.758V333.531C296.768 334.19 296.882 334.749 297.109 335.207C297.34 335.662 297.661 336.008 298.07 336.247C298.479 336.482 298.954 336.599 299.496 336.599C299.848 336.599 300.166 336.55 300.45 336.451C300.738 336.349 300.986 336.198 301.195 335.997C301.403 335.792 301.564 335.538 301.678 335.235L302.973 335.599C302.837 336.038 302.607 336.425 302.286 336.758C301.964 337.088 301.566 337.345 301.092 337.531C300.619 337.713 300.087 337.804 299.496 337.804ZM313.717 325.985V337.622H312.308V327.463H312.24L309.399 329.349V327.917L312.308 325.985H313.717ZM320.928 337.781C320.45 337.773 319.973 337.682 319.496 337.508C319.018 337.334 318.583 337.04 318.189 336.628C317.795 336.211 317.479 335.648 317.24 334.94C317.001 334.228 316.882 333.334 316.882 332.258C316.882 331.228 316.979 330.315 317.172 329.52C317.365 328.72 317.645 328.048 318.013 327.503C318.38 326.953 318.823 326.537 319.342 326.253C319.865 325.968 320.454 325.826 321.109 325.826C321.761 325.826 322.34 325.957 322.848 326.218C323.359 326.476 323.776 326.836 324.098 327.298C324.42 327.76 324.628 328.292 324.723 328.895H323.337C323.208 328.372 322.958 327.938 322.587 327.593C322.215 327.249 321.723 327.076 321.109 327.076C320.208 327.076 319.498 327.468 318.979 328.253C318.464 329.037 318.204 330.137 318.2 331.554H318.291C318.503 331.232 318.755 330.957 319.047 330.73C319.342 330.499 319.668 330.321 320.024 330.196C320.38 330.071 320.757 330.008 321.155 330.008C321.821 330.008 322.431 330.175 322.984 330.508C323.537 330.838 323.981 331.294 324.314 331.878C324.647 332.457 324.814 333.122 324.814 333.872C324.814 334.592 324.653 335.251 324.331 335.849C324.009 336.444 323.556 336.917 322.973 337.27C322.393 337.618 321.712 337.788 320.928 337.781ZM320.928 336.531C321.405 336.531 321.833 336.412 322.212 336.173C322.594 335.934 322.895 335.614 323.115 335.213C323.339 334.811 323.45 334.364 323.45 333.872C323.45 333.391 323.342 332.953 323.126 332.559C322.914 332.162 322.621 331.845 322.246 331.61C321.875 331.376 321.45 331.258 320.973 331.258C320.613 331.258 320.278 331.33 319.967 331.474C319.657 331.614 319.384 331.807 319.149 332.054C318.918 332.3 318.736 332.582 318.604 332.9C318.471 333.215 318.405 333.546 318.405 333.895C318.405 334.357 318.513 334.788 318.729 335.19C318.948 335.592 319.248 335.915 319.626 336.162C320.009 336.408 320.443 336.531 320.928 336.531ZM330.685 337.781C330.018 337.781 329.418 337.648 328.884 337.383C328.349 337.118 327.921 336.754 327.599 336.292C327.277 335.83 327.101 335.304 327.071 334.713H328.435C328.488 335.239 328.726 335.675 329.151 336.02C329.579 336.36 330.09 336.531 330.685 336.531C331.162 336.531 331.586 336.419 331.957 336.196C332.332 335.972 332.626 335.665 332.838 335.275C333.054 334.881 333.162 334.436 333.162 333.94C333.162 333.432 333.05 332.98 332.827 332.582C332.607 332.181 332.304 331.864 331.918 331.633C331.531 331.402 331.09 331.285 330.594 331.281C330.238 331.277 329.872 331.332 329.497 331.446C329.122 331.556 328.813 331.698 328.571 331.872L327.253 331.713L327.957 325.985H334.003V327.235H329.139L328.73 330.667H328.798C329.037 330.478 329.336 330.321 329.696 330.196C330.056 330.071 330.431 330.008 330.821 330.008C331.533 330.008 332.168 330.179 332.724 330.52C333.285 330.857 333.724 331.319 334.043 331.906C334.365 332.493 334.526 333.163 334.526 333.917C334.526 334.66 334.359 335.323 334.026 335.906C333.696 336.485 333.241 336.944 332.662 337.281C332.082 337.614 331.423 337.781 330.685 337.781ZM340.578 337.781C339.722 337.781 338.993 337.548 338.391 337.082C337.788 336.612 337.328 335.932 337.01 335.042C336.692 334.148 336.533 333.069 336.533 331.804C336.533 330.546 336.692 329.472 337.01 328.582C337.332 327.688 337.794 327.006 338.396 326.537C339.002 326.063 339.73 325.826 340.578 325.826C341.427 325.826 342.152 326.063 342.754 326.537C343.36 327.006 343.822 327.688 344.141 328.582C344.463 329.472 344.624 330.546 344.624 331.804C344.624 333.069 344.464 334.148 344.146 335.042C343.828 335.932 343.368 336.612 342.766 337.082C342.163 337.548 341.434 337.781 340.578 337.781ZM340.578 336.531C341.427 336.531 342.086 336.122 342.555 335.304C343.025 334.485 343.26 333.319 343.26 331.804C343.26 330.796 343.152 329.938 342.936 329.23C342.724 328.521 342.417 327.982 342.016 327.61C341.618 327.239 341.139 327.054 340.578 327.054C339.737 327.054 339.08 327.468 338.607 328.298C338.133 329.124 337.896 330.292 337.896 331.804C337.896 332.811 338.002 333.667 338.214 334.372C338.427 335.076 338.732 335.612 339.129 335.98C339.531 336.347 340.014 336.531 340.578 336.531Z" fill="#FFFDFB"/>
<path d="M99.738 388.657L99.7732 387.251C100.054 387.18 100.394 387.116 100.793 387.057C101.554 386.952 102.176 386.8 102.656 386.6C102.82 386.331 102.926 386.073 102.972 385.827C103.066 385.171 103.113 384.204 103.113 382.927L103.078 375.456C103.078 374.682 103.037 372.661 102.955 369.391C102.931 368.512 102.873 367.968 102.779 367.757C102.744 367.686 102.685 367.628 102.603 367.581C102.416 367.452 102.064 367.376 101.549 367.352C101.326 367.341 100.752 367.276 99.8259 367.159L99.7732 365.911L103.711 365.823L109.459 365.63L110.144 365.612C110.285 365.6 110.426 365.594 110.566 365.594C110.683 365.594 110.994 365.6 111.498 365.612H112.623C113.513 365.6 114.48 365.735 115.523 366.016C115.886 366.11 116.367 366.309 116.965 366.614C117.562 366.907 118.078 367.288 118.511 367.757C118.957 368.214 119.285 368.729 119.496 369.303C119.707 369.878 119.812 370.487 119.812 371.132C119.812 371.846 119.654 372.491 119.338 373.065C119.021 373.628 118.541 374.149 117.896 374.63C117.568 374.864 116.812 375.251 115.629 375.79C117.398 376.188 118.746 376.921 119.672 377.987C120.597 379.042 121.06 380.219 121.06 381.52C121.06 382.294 120.914 383.102 120.621 383.946C120.41 384.579 120.052 385.165 119.549 385.704C118.881 386.419 118.172 386.958 117.422 387.321C116.683 387.684 115.658 387.983 114.345 388.218C113.689 388.335 112.693 388.393 111.357 388.393L108.369 388.323C107.103 388.323 105.597 388.382 103.851 388.499C103.359 388.522 101.988 388.575 99.738 388.657ZM107.929 375.315C108.398 375.385 108.949 375.421 109.582 375.421C111.34 375.421 112.67 375.098 113.572 374.454C114.474 373.798 114.926 372.673 114.926 371.079C114.926 369.954 114.498 369.016 113.642 368.266C112.787 367.516 111.498 367.141 109.775 367.141C109.283 367.141 108.627 367.206 107.806 367.335C107.806 367.604 107.818 367.991 107.842 368.495C107.9 369.491 107.929 370.885 107.929 372.678L107.912 374.155C107.912 374.413 107.918 374.8 107.929 375.315ZM108.14 386.512C108.902 386.829 109.611 386.987 110.267 386.987C111.603 386.987 112.693 386.788 113.537 386.389C114.381 385.979 114.996 385.411 115.383 384.684C115.769 383.958 115.963 383.05 115.963 381.96C115.963 380.835 115.752 379.932 115.33 379.253C114.744 378.315 114.035 377.688 113.203 377.372C112.371 377.044 111.123 376.88 109.459 376.88C108.72 376.88 108.211 376.932 107.929 377.038V379.2L107.912 381.802L107.965 385.844C107.976 386.032 108.035 386.255 108.14 386.512ZM123.485 388.499L123.52 387.303C123.743 387.233 124.135 387.145 124.698 387.04C125.6 386.864 126.145 386.706 126.332 386.565C126.532 386.425 126.772 386.085 127.053 385.546L130.604 376.247L134.77 365.313C135.157 365.325 135.526 365.331 135.877 365.331H136.668L136.826 365.647L139.885 372.889C140.576 374.425 141.198 375.919 141.748 377.372C142.299 378.813 142.774 379.991 143.172 380.905C143.407 381.456 143.729 382.282 144.139 383.384C144.35 383.981 144.672 384.731 145.106 385.634C145.34 386.126 145.516 386.413 145.633 386.495C145.844 386.671 146.184 386.788 146.653 386.846C147.133 386.905 147.649 387.04 148.2 387.251C148.258 387.637 148.287 387.925 148.287 388.112C148.287 388.194 148.282 388.323 148.27 388.499C147.403 388.499 146.448 388.458 145.405 388.376C144.362 388.294 143.424 388.253 142.592 388.253C141.666 388.253 140.998 388.264 140.588 388.288L137.6 388.446L136.739 388.481C136.739 388.071 136.756 387.678 136.791 387.303L138.743 386.882C139.328 386.729 139.668 386.612 139.762 386.53C139.879 386.413 139.938 386.278 139.938 386.126C139.938 385.973 139.909 385.815 139.85 385.651L139.147 383.928L137.758 380.483L131.043 380.466C130.797 381.028 130.287 382.405 129.514 384.596C129.291 385.218 129.18 385.639 129.18 385.862C129.18 386.167 129.262 386.384 129.426 386.512C129.696 386.735 130.211 386.893 130.973 386.987C131.078 387.01 131.494 387.075 132.221 387.18C132.233 387.602 132.239 387.895 132.239 388.059C132.239 388.188 132.227 388.323 132.203 388.464C131.477 388.464 129.743 388.364 127 388.165L126.28 388.288C125.412 388.428 124.586 388.499 123.801 388.499H123.485ZM131.746 378.62C134.489 378.655 136.106 378.673 136.598 378.673L137.037 378.655C136.686 377.612 136.229 376.399 135.666 375.016C135.104 373.622 134.647 372.561 134.295 371.835L131.746 378.62ZM150.888 364.768H151.977C152.059 364.897 152.118 364.991 152.153 365.05C152.481 365.612 152.733 365.981 152.909 366.157C153.061 366.204 153.864 366.227 155.317 366.227C156.22 366.227 157.022 366.221 157.725 366.21L158.077 366.157L160.204 366.139L164.177 366.175H169.608L170.645 366.016C170.798 365.911 170.962 365.63 171.138 365.173C171.184 365.067 171.249 364.921 171.331 364.733L172.104 364.716C172.222 364.716 172.397 364.721 172.632 364.733C172.643 365.542 172.649 366.76 172.649 368.389L172.667 369.954L172.649 370.85C172.649 371.155 172.626 371.419 172.579 371.641C172.099 371.794 171.677 371.887 171.313 371.923C171.009 371.466 170.675 370.803 170.311 369.936C169.96 369.069 169.737 368.589 169.643 368.495C169.503 368.343 169.339 368.243 169.151 368.196C168.87 368.137 167.628 368.108 165.425 368.108C165.097 368.108 164.686 368.132 164.194 368.178C164.124 368.635 164.089 369.01 164.089 369.303L164.106 371.659V376.827L164.177 382.399L164.159 384.684C164.159 385.493 164.229 386.102 164.37 386.512C164.557 386.594 164.903 386.671 165.407 386.741C165.501 386.753 165.934 386.846 166.708 387.022C167.059 387.104 167.37 387.198 167.64 387.303C167.698 387.725 167.727 387.983 167.727 388.077C167.727 388.182 167.71 388.335 167.675 388.534C167.417 388.546 167.206 388.552 167.042 388.552C165.835 388.552 164.809 388.51 163.966 388.428C163.122 388.335 161.593 388.288 159.378 388.288C159.026 388.288 157.995 388.358 156.284 388.499C155.616 388.546 155.182 388.569 154.983 388.569C154.972 388.393 154.96 388.259 154.948 388.165L154.931 387.76V387.62C155.188 387.28 155.675 387.028 156.39 386.864C157.608 386.571 158.452 386.307 158.921 386.073C159.038 385.85 159.108 385.557 159.132 385.194C159.214 383.788 159.255 381.55 159.255 378.479L159.167 371.835C159.167 370.007 159.132 368.899 159.061 368.512C159.038 368.407 158.997 368.331 158.938 368.284C158.88 368.225 158.798 368.19 158.692 368.178C158.329 368.132 157.145 368.108 155.141 368.108C154.04 368.108 153.302 368.214 152.927 368.425C152.423 368.718 151.667 369.514 150.659 370.815C150.366 371.19 150.149 371.378 150.009 371.378C149.47 371.096 149.124 370.868 148.972 370.692C149.335 369.93 149.839 368.407 150.483 366.122C150.671 365.454 150.806 365.003 150.888 364.768ZM187.518 364.768H188.607C188.689 364.897 188.748 364.991 188.783 365.05C189.111 365.612 189.363 365.981 189.539 366.157C189.691 366.204 190.494 366.227 191.947 366.227C192.85 366.227 193.652 366.221 194.355 366.21L194.707 366.157L196.834 366.139L200.807 366.175H206.238L207.275 366.016C207.428 365.911 207.592 365.63 207.768 365.173C207.814 365.067 207.879 364.921 207.961 364.733L208.734 364.716C208.852 364.716 209.027 364.721 209.262 364.733C209.273 365.542 209.279 366.76 209.279 368.389L209.297 369.954L209.279 370.85C209.279 371.155 209.256 371.419 209.209 371.641C208.729 371.794 208.307 371.887 207.943 371.923C207.639 371.466 207.305 370.803 206.941 369.936C206.59 369.069 206.367 368.589 206.273 368.495C206.133 368.343 205.969 368.243 205.781 368.196C205.5 368.137 204.258 368.108 202.055 368.108C201.727 368.108 201.316 368.132 200.824 368.178C200.754 368.635 200.719 369.01 200.719 369.303L200.736 371.659V376.827L200.807 382.399L200.789 384.684C200.789 385.493 200.859 386.102 201 386.512C201.188 386.594 201.533 386.671 202.037 386.741C202.131 386.753 202.564 386.846 203.338 387.022C203.689 387.104 204 387.198 204.27 387.303C204.328 387.725 204.357 387.983 204.357 388.077C204.357 388.182 204.34 388.335 204.305 388.534C204.047 388.546 203.836 388.552 203.672 388.552C202.465 388.552 201.439 388.51 200.596 388.428C199.752 388.335 198.223 388.288 196.008 388.288C195.656 388.288 194.625 388.358 192.914 388.499C192.246 388.546 191.812 388.569 191.613 388.569C191.602 388.393 191.59 388.259 191.578 388.165L191.561 387.76V387.62C191.818 387.28 192.305 387.028 193.02 386.864C194.238 386.571 195.082 386.307 195.551 386.073C195.668 385.85 195.738 385.557 195.762 385.194C195.844 383.788 195.885 381.55 195.885 378.479L195.797 371.835C195.797 370.007 195.762 368.899 195.691 368.512C195.668 368.407 195.627 368.331 195.568 368.284C195.51 368.225 195.428 368.19 195.322 368.178C194.959 368.132 193.775 368.108 191.771 368.108C190.67 368.108 189.932 368.214 189.557 368.425C189.053 368.718 188.297 369.514 187.289 370.815C186.996 371.19 186.779 371.378 186.639 371.378C186.1 371.096 185.754 370.868 185.602 370.692C185.965 369.93 186.469 368.407 187.113 366.122C187.301 365.454 187.436 365.003 187.518 364.768ZM213.303 387.427C213.608 387.262 214.059 387.145 214.657 387.075C215.254 386.993 215.794 386.864 216.274 386.688C216.333 386.454 216.368 386.284 216.379 386.178C216.403 386.014 216.415 385.452 216.415 384.491L216.397 380.571L216.467 378.462L216.432 376.827L216.467 375.878C216.502 374.6 216.52 373.405 216.52 372.292C216.52 369.854 216.491 368.296 216.432 367.616L215.395 367.405C214.446 367.346 213.813 367.288 213.497 367.229L213.461 366.175L213.532 365.981C214.118 365.887 214.657 365.841 215.149 365.841C215.419 365.841 215.963 365.835 216.784 365.823C217.627 365.893 218.085 365.928 218.155 365.928L219.086 365.876L221.284 365.77C222.655 365.63 224.102 365.559 225.626 365.559C228.028 365.559 229.938 366.175 231.356 367.405C232.774 368.624 233.483 370.024 233.483 371.606C233.483 372.79 233.096 373.868 232.323 374.841C231.561 375.802 230.383 376.528 228.79 377.02C228.93 377.266 229.118 377.553 229.352 377.882C229.844 378.585 230.243 379.182 230.547 379.675L233.36 384.227C234.063 385.434 234.52 386.143 234.731 386.354C234.954 386.553 235.405 386.776 236.085 387.022C236.612 387.221 237.016 387.421 237.297 387.62C237.368 387.819 237.403 387.995 237.403 388.147C237.403 388.253 237.397 388.387 237.385 388.552H236.911L236.559 388.569L235.645 388.446H234.924C234.549 388.387 234.086 388.358 233.536 388.358L231.778 388.341C231.649 388.341 231.239 388.382 230.547 388.464C230.231 388.499 229.979 388.528 229.792 388.552L229.194 387.391C228.702 386.512 228.356 385.856 228.157 385.423C227.641 384.286 226.756 382.475 225.502 379.991C224.917 378.843 224.506 378.192 224.272 378.04C223.92 377.794 223.317 377.671 222.461 377.671C222.227 377.671 221.829 377.682 221.266 377.706C221.231 378.046 221.213 378.45 221.213 378.919L221.284 382.821L221.196 386.126C221.524 386.325 221.952 386.477 222.479 386.583C223.393 386.77 224.178 386.993 224.835 387.251C224.835 387.825 224.811 388.259 224.764 388.552C224.542 388.54 224.401 388.534 224.342 388.534L223.622 388.569C221.102 388.346 219.608 388.235 219.139 388.235C218.835 388.235 218.618 388.241 218.489 388.253L216.063 388.411C215.325 388.493 214.651 388.534 214.042 388.534H213.286C213.262 388.241 213.251 388.053 213.251 387.971C213.251 387.843 213.268 387.661 213.303 387.427ZM221.213 376.053C221.776 376.077 222.186 376.089 222.444 376.089C224.436 376.089 225.848 375.731 226.68 375.016C227.512 374.302 227.928 373.346 227.928 372.151C227.928 371.413 227.823 370.721 227.612 370.077C227.413 369.421 227.161 368.934 226.856 368.618C226.422 368.161 225.854 367.815 225.151 367.581C224.635 367.405 223.809 367.317 222.672 367.317C222.133 367.317 221.67 367.346 221.284 367.405L221.266 367.739L221.284 370.112L221.249 371.553L221.266 373.469C221.243 374.009 221.225 374.706 221.213 375.561V376.053ZM237.946 388.499L237.982 387.303C238.204 387.233 238.597 387.145 239.159 387.04C240.062 386.864 240.607 386.706 240.794 386.565C240.993 386.425 241.234 386.085 241.515 385.546L245.066 376.247L249.232 365.313C249.618 365.325 249.987 365.331 250.339 365.331H251.13L251.288 365.647L254.347 372.889C255.038 374.425 255.659 375.919 256.21 377.372C256.761 378.813 257.235 379.991 257.634 380.905C257.868 381.456 258.191 382.282 258.601 383.384C258.812 383.981 259.134 384.731 259.568 385.634C259.802 386.126 259.978 386.413 260.095 386.495C260.306 386.671 260.646 386.788 261.114 386.846C261.595 386.905 262.11 387.04 262.661 387.251C262.72 387.637 262.749 387.925 262.749 388.112C262.749 388.194 262.743 388.323 262.732 388.499C261.864 388.499 260.909 388.458 259.866 388.376C258.823 388.294 257.886 388.253 257.054 388.253C256.128 388.253 255.46 388.264 255.05 388.288L252.062 388.446L251.2 388.481C251.2 388.071 251.218 387.678 251.253 387.303L253.204 386.882C253.79 386.729 254.13 386.612 254.224 386.53C254.341 386.413 254.4 386.278 254.4 386.126C254.4 385.973 254.37 385.815 254.312 385.651L253.609 383.928L252.22 380.483L245.505 380.466C245.259 381.028 244.749 382.405 243.976 384.596C243.753 385.218 243.642 385.639 243.642 385.862C243.642 386.167 243.724 386.384 243.888 386.512C244.157 386.735 244.673 386.893 245.435 386.987C245.54 387.01 245.956 387.075 246.683 387.18C246.694 387.602 246.7 387.895 246.7 388.059C246.7 388.188 246.689 388.323 246.665 388.464C245.939 388.464 244.204 388.364 241.462 388.165L240.741 388.288C239.874 388.428 239.048 388.499 238.263 388.499H237.946ZM246.208 378.62C248.95 378.655 250.568 378.673 251.06 378.673L251.499 378.655C251.148 377.612 250.691 376.399 250.128 375.016C249.566 373.622 249.109 372.561 248.757 371.835L246.208 378.62ZM263.662 367.141L263.591 365.911H265.086L265.595 365.893C266.299 365.858 266.785 365.841 267.054 365.841C267.195 365.841 267.605 365.852 268.285 365.876C268.437 365.887 268.566 365.893 268.672 365.893C268.777 365.893 269.146 365.882 269.779 365.858C270.412 365.835 270.769 365.823 270.851 365.823C270.98 365.823 271.162 365.829 271.396 365.841C273.201 367.481 274.672 368.893 275.808 370.077C276.945 371.26 281.093 375.403 288.254 382.505V382.065L288.183 380.026C288.148 378.831 288.101 377.887 288.043 377.196C287.984 376.493 287.949 375.661 287.937 374.7C287.925 373.727 287.884 372.848 287.814 372.063C287.674 370.528 287.603 369.643 287.603 369.409C287.591 368.647 287.509 368.184 287.357 368.02C287.111 367.762 286.549 367.569 285.67 367.44C285.025 367.335 284.545 367.2 284.228 367.036L284.246 365.999L284.703 365.946L288.166 365.841L292.033 365.735C292.291 365.723 292.537 365.718 292.771 365.718L292.789 366.86C292.519 367.001 292.244 367.106 291.963 367.177C291.213 367.352 290.779 367.475 290.662 367.546C290.064 367.885 289.742 368.091 289.695 368.161C289.59 368.302 289.537 368.518 289.537 368.811C289.537 368.882 289.549 369.128 289.572 369.55C289.584 369.76 289.59 370.253 289.59 371.026C289.601 372.725 289.648 374.067 289.73 375.052C289.754 375.368 289.771 375.725 289.783 376.124L289.976 382.294C289.988 382.727 289.994 383.032 289.994 383.208V385.37L290.047 386.284L289.994 387.233C290.041 387.714 290.064 388.001 290.064 388.094V389.026L288.043 389.096L285.951 386.934L281.679 382.698L278.691 379.71L276.494 377.46C275.064 376.053 273.763 374.817 272.591 373.751L269.726 371.167L269.884 377.706C269.896 378.104 269.902 378.514 269.902 378.936L269.884 380.184L269.99 382.487C270.025 383.448 270.09 384.491 270.183 385.616C270.207 385.921 270.236 386.137 270.271 386.266C270.306 386.384 270.377 386.559 270.482 386.794C270.939 386.958 271.935 387.081 273.47 387.163C273.576 387.186 273.728 387.227 273.927 387.286L273.998 388.71L273.312 388.727C272.937 388.727 271.754 388.639 269.761 388.464C267.898 388.487 266.656 388.522 266.035 388.569C265.414 388.616 265.074 388.639 265.015 388.639C264.875 388.639 264.681 388.616 264.435 388.569C264.412 388.3 264.4 388.065 264.4 387.866C264.4 387.737 264.406 387.526 264.418 387.233C264.746 387.175 265.015 387.145 265.226 387.145C265.297 387.145 265.525 387.157 265.912 387.18C266.896 387.18 267.476 387.11 267.652 386.969C267.84 386.817 267.945 386.419 267.968 385.774C268.05 383.911 268.091 382.774 268.091 382.364V381.397L268.127 375.684L268.074 372.116C268.062 370.757 267.974 369.813 267.81 369.286C267.74 369.016 267.605 368.782 267.406 368.583C266.996 368.161 266.539 367.844 266.035 367.634C265.73 367.505 264.939 367.341 263.662 367.141ZM318.03 367.229C318.112 367.569 318.205 368.243 318.311 369.251C318.416 370.247 318.469 370.973 318.469 371.43C318.469 371.606 318.428 371.823 318.346 372.081C317.842 372.069 317.414 372.022 317.063 371.94C316.172 370.569 315.545 369.708 315.182 369.356C314.502 368.7 313.629 368.143 312.563 367.686C311.778 367.346 310.875 367.177 309.856 367.177C307.899 367.177 306.176 368.055 304.688 369.813C303.199 371.571 302.455 374.184 302.455 377.653C302.455 379.282 302.742 380.864 303.317 382.399C303.903 383.934 304.776 385.141 305.936 386.02C307.096 386.887 308.461 387.321 310.031 387.321C310.793 387.321 311.602 387.221 312.457 387.022C312.891 386.928 313.242 386.741 313.512 386.46C313.699 386.272 313.823 385.991 313.881 385.616C313.975 384.936 314.022 383.969 314.022 382.716C314.022 381.497 314.004 380.659 313.969 380.202C313.887 380.026 313.805 379.915 313.723 379.868C313.653 379.809 313.418 379.721 313.02 379.604L311.455 379.182C311.115 379.1 310.905 379.001 310.823 378.884C310.799 378.731 310.787 378.62 310.787 378.55C310.787 378.385 310.828 378.157 310.91 377.864C311.121 377.794 311.268 377.759 311.35 377.759C312.627 377.759 313.735 377.805 314.672 377.899C315 377.923 315.358 377.934 315.744 377.934L318.522 377.899L319.699 377.864C319.84 377.852 320.233 377.864 320.877 377.899C320.889 378.204 320.895 378.462 320.895 378.673C320.895 378.802 320.854 378.948 320.772 379.112C320.573 379.229 320.233 379.376 319.752 379.552C319.272 379.727 319.002 379.844 318.944 379.903C318.85 379.997 318.785 380.143 318.75 380.343C318.715 380.542 318.698 381.239 318.698 382.434C318.698 383.817 318.692 384.643 318.68 384.913C318.633 385.78 318.61 386.272 318.61 386.389C318.61 386.823 318.551 387.093 318.434 387.198C318.106 387.526 317.086 387.901 315.375 388.323C313.676 388.733 311.696 388.938 309.434 388.938C307.852 388.938 306.475 388.815 305.303 388.569C304.143 388.311 303.153 387.936 302.332 387.444C301.231 386.788 300.287 385.991 299.502 385.053C298.717 384.116 298.131 383.102 297.744 382.012C297.205 380.466 296.936 378.925 296.936 377.389C296.936 375.667 297.334 373.921 298.131 372.151C298.717 370.874 299.537 369.725 300.592 368.706C301.658 367.675 302.989 366.854 304.582 366.245C306.176 365.635 307.91 365.331 309.785 365.331C310.02 365.331 310.401 365.36 310.928 365.419C312.358 365.419 313.694 365.6 314.936 365.964C316.178 366.315 317.209 366.737 318.03 367.229ZM88.6821 427.075C88.8579 427.028 89.2212 426.958 89.7719 426.864C90.8618 426.677 91.5766 426.425 91.9165 426.108C92.1274 425.909 92.2622 425.528 92.3208 424.966C92.3325 424.825 92.3735 423.038 92.4438 419.604L92.4262 417.671L92.4438 415.333L92.3735 409.339L92.3911 408.635C92.3911 408.331 92.3091 408.096 92.145 407.932C92.063 407.85 91.8344 407.809 91.4594 407.809C91.1548 407.809 90.8032 407.844 90.4048 407.915C89.8891 407.938 89.4262 407.985 89.0161 408.055C88.9458 408.067 88.8344 408.085 88.6821 408.108L88.6645 406.561C89.3559 406.339 90.3462 406.122 91.6352 405.911C93.768 405.559 96.393 405.384 99.5102 405.384C102.112 405.384 104.016 405.53 105.223 405.823C107.051 406.28 108.54 406.96 109.688 407.862C111.223 409.069 112.372 410.469 113.133 412.063C113.907 413.645 114.293 415.374 114.293 417.249C114.293 419.616 113.778 421.649 112.747 423.348C111.715 425.036 110.233 426.389 108.299 427.409C106.94 428.135 105.094 428.499 102.762 428.499L99.1587 428.341L98.104 428.288L96.6802 428.323L96.2583 428.288L94.7817 428.323L92.8305 428.305C92.7602 428.305 92.1626 428.346 91.0376 428.428C90.6626 428.452 90.1704 428.469 89.561 428.481C89.186 428.481 88.9048 428.487 88.7173 428.499C88.6938 428.241 88.6821 427.766 88.6821 427.075ZM97.2075 407.493C97.1723 407.856 97.1548 408.114 97.1548 408.266L97.2075 411.255L97.1723 413.856C97.2075 414.7 97.2251 415.438 97.2251 416.071L97.2075 417.741L97.2427 420.536L97.2075 422.259C97.2075 423.864 97.5063 424.954 98.104 425.528C98.9712 426.348 100.166 426.759 101.69 426.759C102.85 426.759 103.706 426.647 104.256 426.425C105.405 425.979 106.313 425.387 106.981 424.649C107.661 423.911 108.176 422.868 108.528 421.52C108.879 420.161 109.055 418.76 109.055 417.319C109.055 414.952 108.674 413.018 107.913 411.518C107.163 410.018 106.131 408.893 104.819 408.143C103.506 407.382 102 407.001 100.301 407.001C99.1059 407.001 98.0747 407.165 97.2075 407.493ZM118.792 428.516V427.251C119.026 427.18 119.413 427.081 119.952 426.952C120.714 426.764 121.282 426.571 121.657 426.372C121.868 426.009 121.974 425.505 121.974 424.86L121.956 422.786L121.991 418.778L121.974 417.829C122.056 415.509 122.097 414.313 122.097 414.243L122.062 411.905L122.114 410.956L122.026 408.952L122.009 408.196C121.997 408.079 121.956 407.891 121.886 407.634C121.405 407.411 120.626 407.27 119.548 407.212C119.29 407.2 119.085 407.182 118.933 407.159L118.88 405.612L123.907 405.823C124.528 405.846 124.915 405.858 125.067 405.858C125.759 405.858 126.866 405.811 128.39 405.718C129.245 405.659 129.784 405.624 130.007 405.612C130.019 405.835 130.024 406.022 130.024 406.175C130.024 406.374 130.013 406.632 129.989 406.948C129.521 407.112 128.981 407.27 128.372 407.423C127.774 407.563 127.282 407.71 126.896 407.862C126.825 408.167 126.79 408.606 126.79 409.18C126.79 409.684 126.808 410.094 126.843 410.411C126.808 412.391 126.79 413.915 126.79 414.981L126.808 419.622L126.755 421.977L126.79 425.493L126.772 426.161C126.772 426.255 126.796 426.389 126.843 426.565C127.558 426.718 128.208 426.823 128.794 426.882C128.899 426.893 129.257 426.94 129.866 427.022C129.913 427.374 129.937 427.667 129.937 427.901C129.937 428.03 129.931 428.229 129.919 428.499C129.767 428.499 129.649 428.505 129.567 428.516C129.192 428.54 128.976 428.552 128.917 428.552C128.835 428.552 128.683 428.534 128.46 428.499C128.296 428.475 127.517 428.393 126.122 428.253L123.011 428.218C122.39 428.218 121.487 428.276 120.304 428.393C119.53 428.464 119.026 428.505 118.792 428.516ZM133.257 407.141L133.187 405.911H134.681L135.191 405.893C135.894 405.858 136.38 405.841 136.65 405.841C136.791 405.841 137.201 405.852 137.88 405.876C138.033 405.887 138.162 405.893 138.267 405.893C138.373 405.893 138.742 405.882 139.375 405.858C140.007 405.835 140.365 405.823 140.447 405.823C140.576 405.823 140.757 405.829 140.992 405.841C142.796 407.481 144.267 408.893 145.404 410.077C146.541 411.26 150.689 415.403 157.849 422.505V422.065L157.779 420.026C157.744 418.831 157.697 417.887 157.638 417.196C157.58 416.493 157.545 415.661 157.533 414.7C157.521 413.727 157.48 412.848 157.41 412.063C157.269 410.528 157.199 409.643 157.199 409.409C157.187 408.647 157.105 408.184 156.953 408.02C156.707 407.762 156.144 407.569 155.265 407.44C154.621 407.335 154.14 407.2 153.824 407.036L153.841 405.999L154.298 405.946L157.761 405.841L161.629 405.735C161.886 405.723 162.132 405.718 162.367 405.718L162.384 406.86C162.115 407.001 161.839 407.106 161.558 407.177C160.808 407.352 160.375 407.475 160.257 407.546C159.66 407.885 159.337 408.091 159.291 408.161C159.185 408.302 159.132 408.518 159.132 408.811C159.132 408.882 159.144 409.128 159.168 409.55C159.179 409.76 159.185 410.253 159.185 411.026C159.197 412.725 159.244 414.067 159.326 415.052C159.349 415.368 159.367 415.725 159.379 416.124L159.572 422.294C159.584 422.727 159.589 423.032 159.589 423.208V425.37L159.642 426.284L159.589 427.233C159.636 427.714 159.66 428.001 159.66 428.094V429.026L157.638 429.096L155.546 426.934L151.275 422.698L148.287 419.71L146.089 417.46C144.66 416.053 143.359 414.817 142.187 413.751L139.322 411.167L139.48 417.706C139.492 418.104 139.498 418.514 139.498 418.936L139.48 420.184L139.586 422.487C139.621 423.448 139.685 424.491 139.779 425.616C139.802 425.921 139.832 426.137 139.867 426.266C139.902 426.384 139.972 426.559 140.078 426.794C140.535 426.958 141.531 427.081 143.066 427.163C143.171 427.186 143.324 427.227 143.523 427.286L143.593 428.71L142.908 428.727C142.533 428.727 141.349 428.639 139.357 428.464C137.494 428.487 136.252 428.522 135.63 428.569C135.009 428.616 134.67 428.639 134.611 428.639C134.47 428.639 134.277 428.616 134.031 428.569C134.007 428.3 133.996 428.065 133.996 427.866C133.996 427.737 134.002 427.526 134.013 427.233C134.341 427.175 134.611 427.145 134.822 427.145C134.892 427.145 135.121 427.157 135.507 427.18C136.492 427.18 137.072 427.11 137.248 426.969C137.435 426.817 137.541 426.419 137.564 425.774C137.646 423.911 137.687 422.774 137.687 422.364V421.397L137.722 415.684L137.67 412.116C137.658 410.757 137.57 409.813 137.406 409.286C137.336 409.016 137.201 408.782 137.002 408.583C136.591 408.161 136.134 407.844 135.63 407.634C135.326 407.505 134.535 407.341 133.257 407.141ZM165.072 407.141L165.002 405.911H166.496L167.006 405.893C167.709 405.858 168.195 405.841 168.465 405.841C168.606 405.841 169.016 405.852 169.695 405.876C169.848 405.887 169.977 405.893 170.082 405.893C170.188 405.893 170.557 405.882 171.19 405.858C171.822 405.835 172.18 405.823 172.262 405.823C172.391 405.823 172.572 405.829 172.807 405.841C174.611 407.481 176.082 408.893 177.219 410.077C178.356 411.26 182.504 415.403 189.664 422.505V422.065L189.594 420.026C189.559 418.831 189.512 417.887 189.453 417.196C189.395 416.493 189.36 415.661 189.348 414.7C189.336 413.727 189.295 412.848 189.225 412.063C189.084 410.528 189.014 409.643 189.014 409.409C189.002 408.647 188.92 408.184 188.768 408.02C188.522 407.762 187.959 407.569 187.08 407.44C186.436 407.335 185.955 407.2 185.639 407.036L185.656 405.999L186.113 405.946L189.576 405.841L193.444 405.735C193.701 405.723 193.947 405.718 194.182 405.718L194.199 406.86C193.93 407.001 193.654 407.106 193.373 407.177C192.623 407.352 192.19 407.475 192.072 407.546C191.475 407.885 191.152 408.091 191.106 408.161C191 408.302 190.947 408.518 190.947 408.811C190.947 408.882 190.959 409.128 190.983 409.55C190.994 409.76 191 410.253 191 411.026C191.012 412.725 191.059 414.067 191.141 415.052C191.164 415.368 191.182 415.725 191.194 416.124L191.387 422.294C191.399 422.727 191.404 423.032 191.404 423.208V425.37L191.457 426.284L191.404 427.233C191.451 427.714 191.475 428.001 191.475 428.094V429.026L189.453 429.096L187.361 426.934L183.09 422.698L180.102 419.71L177.904 417.46C176.475 416.053 175.174 414.817 174.002 413.751L171.137 411.167L171.295 417.706C171.307 418.104 171.313 418.514 171.313 418.936L171.295 420.184L171.401 422.487C171.436 423.448 171.5 424.491 171.594 425.616C171.617 425.921 171.647 426.137 171.682 426.266C171.717 426.384 171.787 426.559 171.893 426.794C172.35 426.958 173.346 427.081 174.881 427.163C174.986 427.186 175.139 427.227 175.338 427.286L175.408 428.71L174.723 428.727C174.348 428.727 173.164 428.639 171.172 428.464C169.309 428.487 168.067 428.522 167.445 428.569C166.824 428.616 166.485 428.639 166.426 428.639C166.285 428.639 166.092 428.616 165.846 428.569C165.822 428.3 165.811 428.065 165.811 427.866C165.811 427.737 165.817 427.526 165.828 427.233C166.156 427.175 166.426 427.145 166.637 427.145C166.707 427.145 166.936 427.157 167.322 427.18C168.307 427.18 168.887 427.11 169.063 426.969C169.25 426.817 169.356 426.419 169.379 425.774C169.461 423.911 169.502 422.774 169.502 422.364V421.397L169.537 415.684L169.485 412.116C169.473 410.757 169.385 409.813 169.221 409.286C169.151 409.016 169.016 408.782 168.817 408.583C168.406 408.161 167.949 407.844 167.445 407.634C167.141 407.505 166.35 407.341 165.072 407.141ZM197.415 405.753C198.083 405.788 198.663 405.841 199.155 405.911C200.081 406.04 201.153 406.104 202.372 406.104C202.794 406.104 203.878 406.069 205.624 405.999C208.237 405.893 210.598 405.841 212.708 405.841L215.889 405.805C216.604 405.805 217.659 405.893 219.053 406.069C219.264 406.303 219.37 406.62 219.37 407.018V410.639L219.405 411.36C219.405 411.43 219.399 411.536 219.387 411.677L218.667 411.712C218.573 411.712 218.374 411.7 218.069 411.677C217.964 411.442 217.823 411.096 217.647 410.639L216.944 409.391C216.675 408.864 216.3 408.325 215.819 407.774C215.526 407.692 215.151 407.645 214.694 407.634C214.577 407.622 214.219 407.593 213.622 407.546C212.532 407.452 211.36 407.405 210.106 407.405C208.676 407.405 207.399 407.428 206.274 407.475C206.239 407.768 206.221 408.923 206.221 410.938L206.257 413.891V416.106C206.55 416.141 206.801 416.159 207.012 416.159C209.11 416.159 210.604 416.118 211.495 416.036C212.385 415.954 212.936 415.843 213.147 415.702C213.358 415.55 213.546 415.292 213.71 414.928C213.815 414.671 214.02 413.809 214.325 412.344L214.553 412.327L215.573 412.344C215.62 413.387 215.643 414.178 215.643 414.718C215.643 415.948 215.632 416.739 215.608 417.091C215.596 417.442 215.591 417.718 215.591 417.917C215.591 418.233 215.608 418.743 215.643 419.446C215.678 420.137 215.696 420.653 215.696 420.993V421.38H214.448C214.401 421.192 214.313 420.805 214.184 420.219C213.95 419.13 213.739 418.45 213.551 418.18C213.411 417.969 213.176 417.811 212.848 417.706C212.614 417.624 211.747 417.583 210.247 417.583C208.477 417.583 207.147 417.63 206.257 417.723C206.245 418.028 206.239 418.227 206.239 418.321C206.239 419.716 206.262 420.876 206.309 421.802L206.274 425.598C206.274 426.044 206.432 426.348 206.749 426.512C207.229 426.759 208.7 426.882 211.161 426.882C212.79 426.882 214.173 426.759 215.309 426.512C216.094 426.337 216.786 425.944 217.384 425.335C218.18 424.55 218.842 423.448 219.37 422.03C219.733 421.995 220.032 421.977 220.266 421.977C220.395 421.977 220.589 421.983 220.846 421.995C220.811 422.288 220.782 422.534 220.759 422.733L220.653 423.26L220.003 426.583L219.686 428.587C218.925 428.622 218.321 428.639 217.876 428.639C217.219 428.639 215.467 428.581 212.62 428.464C210.616 428.382 208.202 428.341 205.378 428.341C203.971 428.341 202.243 428.399 200.192 428.516H199.454L197.327 428.587V427.374C197.55 427.315 197.995 427.251 198.663 427.18C199.882 427.04 200.725 426.852 201.194 426.618C201.323 426.278 201.387 425.85 201.387 425.335C201.387 425.135 201.382 424.796 201.37 424.315L201.387 423.77L201.335 417.143L201.352 415.157L201.264 412.344L201.282 410.358L201.124 408.178C201.124 408.12 201.112 408.003 201.089 407.827C200.971 407.698 200.796 407.616 200.561 407.581C200.432 407.557 200.257 407.522 200.034 407.475C199.366 407.335 198.721 407.253 198.1 407.229C197.878 407.218 197.62 407.194 197.327 407.159L197.415 405.753ZM225.134 427.427C225.439 427.262 225.89 427.145 226.488 427.075C227.085 426.993 227.624 426.864 228.105 426.688C228.163 426.454 228.199 426.284 228.21 426.178C228.234 426.014 228.245 425.452 228.245 424.491L228.228 420.571L228.298 418.462L228.263 416.827L228.298 415.878C228.333 414.6 228.351 413.405 228.351 412.292C228.351 409.854 228.322 408.296 228.263 407.616L227.226 407.405C226.277 407.346 225.644 407.288 225.327 407.229L225.292 406.175L225.363 405.981C225.949 405.887 226.488 405.841 226.98 405.841C227.249 405.841 227.794 405.835 228.615 405.823C229.458 405.893 229.915 405.928 229.986 405.928L230.917 405.876L233.115 405.77C234.486 405.63 235.933 405.559 237.456 405.559C239.859 405.559 241.769 406.175 243.187 407.405C244.605 408.624 245.314 410.024 245.314 411.606C245.314 412.79 244.927 413.868 244.154 414.841C243.392 415.802 242.214 416.528 240.62 417.02C240.761 417.266 240.949 417.553 241.183 417.882C241.675 418.585 242.074 419.182 242.378 419.675L245.191 424.227C245.894 425.434 246.351 426.143 246.562 426.354C246.784 426.553 247.236 426.776 247.915 427.022C248.443 427.221 248.847 427.421 249.128 427.62C249.199 427.819 249.234 427.995 249.234 428.147C249.234 428.253 249.228 428.387 249.216 428.552H248.741L248.39 428.569L247.476 428.446H246.755C246.38 428.387 245.917 428.358 245.366 428.358L243.609 428.341C243.48 428.341 243.07 428.382 242.378 428.464C242.062 428.499 241.81 428.528 241.622 428.552L241.025 427.391C240.533 426.512 240.187 425.856 239.988 425.423C239.472 424.286 238.587 422.475 237.333 419.991C236.747 418.843 236.337 418.192 236.103 418.04C235.751 417.794 235.148 417.671 234.292 417.671C234.058 417.671 233.659 417.682 233.097 417.706C233.062 418.046 233.044 418.45 233.044 418.919L233.115 422.821L233.027 426.126C233.355 426.325 233.783 426.477 234.31 426.583C235.224 426.77 236.009 426.993 236.665 427.251C236.665 427.825 236.642 428.259 236.595 428.552C236.372 428.54 236.232 428.534 236.173 428.534L235.452 428.569C232.933 428.346 231.439 428.235 230.97 428.235C230.665 428.235 230.449 428.241 230.32 428.253L227.894 428.411C227.156 428.493 226.482 428.534 225.872 428.534H225.116C225.093 428.241 225.081 428.053 225.081 427.971C225.081 427.843 225.099 427.661 225.134 427.427ZM233.044 416.053C233.607 416.077 234.017 416.089 234.275 416.089C236.267 416.089 237.679 415.731 238.511 415.016C239.343 414.302 239.759 413.346 239.759 412.151C239.759 411.413 239.654 410.721 239.443 410.077C239.243 409.421 238.991 408.934 238.687 408.618C238.253 408.161 237.685 407.815 236.982 407.581C236.466 407.405 235.64 407.317 234.503 407.317C233.964 407.317 233.501 407.346 233.115 407.405L233.097 407.739L233.115 410.112L233.079 411.553L233.097 413.469C233.074 414.009 233.056 414.706 233.044 415.561V416.053ZM275.528 406.262C275.645 406.661 275.75 407.264 275.844 408.073C275.985 409.28 276.055 410.218 276.055 410.885C276.055 411.096 276.032 411.325 275.985 411.571L275.809 411.624L274.543 411.536L274.332 411.501C273.817 409.954 273.301 408.905 272.786 408.354C271.895 407.417 270.846 406.948 269.639 406.948C268.491 406.948 267.577 407.253 266.897 407.862C266.229 408.46 265.895 409.204 265.895 410.094C265.895 410.844 266.229 411.565 266.897 412.257C267.553 412.948 268.948 413.61 271.08 414.243C271.795 414.454 272.657 414.794 273.664 415.262C274.684 415.731 275.457 416.241 275.985 416.792C276.688 417.518 277.168 418.221 277.426 418.901C277.696 419.569 277.83 420.407 277.83 421.415C277.83 422.516 277.625 423.6 277.215 424.667C276.993 425.229 276.635 425.762 276.143 426.266C275.791 426.618 275.246 427.034 274.508 427.514C273.77 427.983 273.002 428.323 272.205 428.534C271.42 428.745 270.407 428.85 269.164 428.85C268.344 428.85 267.366 428.733 266.229 428.499L264.12 427.884C263.534 427.719 263.164 427.573 263.012 427.444C262.954 427.397 262.901 427.286 262.854 427.11V426.917C262.854 426.788 262.825 425.985 262.766 424.509C262.743 423.747 262.731 423.208 262.731 422.891V422.223L264.348 422.188C264.911 423.489 265.274 424.274 265.438 424.544C265.801 425.141 266.2 425.628 266.633 426.003C267.079 426.366 267.606 426.659 268.215 426.882C268.825 427.093 269.487 427.198 270.202 427.198C270.834 427.198 271.532 427.063 272.293 426.794C273.055 426.524 273.664 426.085 274.121 425.475C274.59 424.854 274.825 424.192 274.825 423.489C274.825 422.622 274.42 421.819 273.612 421.081C273.12 420.624 271.795 420.014 269.639 419.253C267.483 418.491 265.989 417.811 265.157 417.214C264.325 416.616 263.668 415.819 263.188 414.823C262.707 413.815 262.467 412.848 262.467 411.923C262.467 410.059 263.135 408.477 264.471 407.177C265.807 405.876 267.776 405.225 270.377 405.225C270.94 405.225 271.772 405.325 272.873 405.524C273.541 405.641 274.426 405.887 275.528 406.262ZM281.222 405.753C281.89 405.788 282.47 405.841 282.962 405.911C283.888 406.04 284.96 406.104 286.179 406.104C286.601 406.104 287.685 406.069 289.431 405.999C292.044 405.893 294.405 405.841 296.515 405.841L299.696 405.805C300.411 405.805 301.466 405.893 302.86 406.069C303.071 406.303 303.177 406.62 303.177 407.018V410.639L303.212 411.36C303.212 411.43 303.206 411.536 303.194 411.677L302.474 411.712C302.38 411.712 302.181 411.7 301.876 411.677C301.77 411.442 301.63 411.096 301.454 410.639L300.751 409.391C300.481 408.864 300.106 408.325 299.626 407.774C299.333 407.692 298.958 407.645 298.501 407.634C298.384 407.622 298.026 407.593 297.429 407.546C296.339 407.452 295.167 407.405 293.913 407.405C292.483 407.405 291.206 407.428 290.081 407.475C290.046 407.768 290.028 408.923 290.028 410.938L290.063 413.891V416.106C290.356 416.141 290.608 416.159 290.819 416.159C292.917 416.159 294.411 416.118 295.302 416.036C296.192 415.954 296.743 415.843 296.954 415.702C297.165 415.55 297.353 415.292 297.517 414.928C297.622 414.671 297.827 413.809 298.132 412.344L298.36 412.327L299.38 412.344C299.427 413.387 299.45 414.178 299.45 414.718C299.45 415.948 299.438 416.739 299.415 417.091C299.403 417.442 299.397 417.718 299.397 417.917C299.397 418.233 299.415 418.743 299.45 419.446C299.485 420.137 299.503 420.653 299.503 420.993V421.38H298.255C298.208 421.192 298.12 420.805 297.991 420.219C297.757 419.13 297.546 418.45 297.358 418.18C297.218 417.969 296.983 417.811 296.655 417.706C296.421 417.624 295.554 417.583 294.054 417.583C292.284 417.583 290.954 417.63 290.063 417.723C290.052 418.028 290.046 418.227 290.046 418.321C290.046 419.716 290.069 420.876 290.116 421.802L290.081 425.598C290.081 426.044 290.239 426.348 290.556 426.512C291.036 426.759 292.507 426.882 294.968 426.882C296.597 426.882 297.979 426.759 299.116 426.512C299.901 426.337 300.593 425.944 301.19 425.335C301.987 424.55 302.649 423.448 303.177 422.03C303.54 421.995 303.839 421.977 304.073 421.977C304.202 421.977 304.395 421.983 304.653 421.995C304.618 422.288 304.589 422.534 304.565 422.733L304.46 423.26L303.81 426.583L303.493 428.587C302.731 428.622 302.128 428.639 301.683 428.639C301.026 428.639 299.274 428.581 296.427 428.464C294.423 428.382 292.009 428.341 289.185 428.341C287.778 428.341 286.05 428.399 283.999 428.516H283.261L281.134 428.587V427.374C281.356 427.315 281.802 427.251 282.47 427.18C283.688 427.04 284.532 426.852 285.001 426.618C285.13 426.278 285.194 425.85 285.194 425.335C285.194 425.135 285.188 424.796 285.177 424.315L285.194 423.77L285.142 417.143L285.159 415.157L285.071 412.344L285.089 410.358L284.931 408.178C284.931 408.12 284.919 408.003 284.895 407.827C284.778 407.698 284.603 407.616 284.368 407.581C284.239 407.557 284.063 407.522 283.841 407.475C283.173 407.335 282.528 407.253 281.907 407.229C281.685 407.218 281.427 407.194 281.134 407.159L281.222 405.753ZM309.345 404.768H310.435C310.517 404.897 310.576 404.991 310.611 405.05C310.939 405.612 311.191 405.981 311.367 406.157C311.519 406.204 312.322 406.227 313.775 406.227C314.677 406.227 315.48 406.221 316.183 406.21L316.535 406.157L318.662 406.139L322.634 406.175H328.066L329.103 406.016C329.255 405.911 329.419 405.63 329.595 405.173C329.642 405.067 329.707 404.921 329.789 404.733L330.562 404.716C330.679 404.716 330.855 404.721 331.089 404.733C331.101 405.542 331.107 406.76 331.107 408.389L331.125 409.954L331.107 410.85C331.107 411.155 331.084 411.419 331.037 411.641C330.556 411.794 330.134 411.887 329.771 411.923C329.466 411.466 329.132 410.803 328.769 409.936C328.418 409.069 328.195 408.589 328.101 408.495C327.96 408.343 327.796 408.243 327.609 408.196C327.328 408.137 326.085 408.108 323.882 408.108C323.554 408.108 323.144 408.132 322.652 408.178C322.582 408.635 322.546 409.01 322.546 409.303L322.564 411.659V416.827L322.634 422.399L322.617 424.684C322.617 425.493 322.687 426.102 322.828 426.512C323.015 426.594 323.361 426.671 323.865 426.741C323.959 426.753 324.392 426.846 325.166 427.022C325.517 427.104 325.828 427.198 326.097 427.303C326.156 427.725 326.185 427.983 326.185 428.077C326.185 428.182 326.168 428.335 326.132 428.534C325.875 428.546 325.664 428.552 325.5 428.552C324.293 428.552 323.267 428.51 322.423 428.428C321.58 428.335 320.05 428.288 317.835 428.288C317.484 428.288 316.453 428.358 314.742 428.499C314.074 428.546 313.64 428.569 313.441 428.569C313.429 428.393 313.418 428.259 313.406 428.165L313.388 427.76V427.62C313.646 427.28 314.132 427.028 314.847 426.864C316.066 426.571 316.91 426.307 317.378 426.073C317.496 425.85 317.566 425.557 317.589 425.194C317.671 423.788 317.712 421.55 317.712 418.479L317.625 411.835C317.625 410.007 317.589 408.899 317.519 408.512C317.496 408.407 317.455 408.331 317.396 408.284C317.337 408.225 317.255 408.19 317.15 408.178C316.787 408.132 315.603 408.108 313.599 408.108C312.498 408.108 311.759 408.214 311.384 408.425C310.88 408.718 310.125 409.514 309.117 410.815C308.824 411.19 308.607 411.378 308.466 411.378C307.927 411.096 307.582 410.868 307.429 410.692C307.793 409.93 308.296 408.407 308.941 406.122C309.128 405.454 309.263 405.003 309.345 404.768Z" fill="#FFFDFB"/>
</svg>
