<svg width="420" height="545" viewBox="0 0 420 545" fill="none" xmlns="http://www.w3.org/2000/svg">
<rect width="420" height="545" fill="#3A3845"/>
<mask id="path-1-inside-1_52_1860" fill="white">
<path d="M179.587 161.051C178.806 160.27 178.806 159.003 179.587 158.222L184.181 153.628C188.867 148.942 196.465 148.942 201.152 153.628L205.746 158.222C206.527 159.003 206.527 160.27 205.746 161.051L201.152 165.645C196.465 170.331 188.867 170.331 184.181 165.645L179.587 161.051Z"/>
</mask>
<path d="M179.587 161.051C178.806 160.27 178.806 159.003 179.587 158.222L184.181 153.628C188.867 148.942 196.465 148.942 201.152 153.628L205.746 158.222C206.527 159.003 206.527 160.27 205.746 161.051L201.152 165.645C196.465 170.331 188.867 170.331 184.181 165.645L179.587 161.051Z" stroke="#C69B7B" stroke-width="8" mask="url(#path-1-inside-1_52_1860)"/>
<mask id="path-2-inside-2_52_1860" fill="white">
<path d="M213.69 161.051C212.909 160.27 212.909 159.003 213.69 158.222L218.284 153.628C222.97 148.942 230.568 148.942 235.254 153.628L239.849 158.222C240.63 159.003 240.63 160.27 239.849 161.051L235.254 165.645C230.568 170.331 222.97 170.331 218.284 165.645L213.69 161.051Z"/>
</mask>
<path d="M213.69 161.051C212.909 160.27 212.909 159.003 213.69 158.222L218.284 153.628C222.97 148.942 230.568 148.942 235.254 153.628L239.849 158.222C240.63 159.003 240.63 160.27 239.849 161.051L235.254 165.645C230.568 170.331 222.97 170.331 218.284 165.645L213.69 161.051Z" stroke="#C69B7B" stroke-width="8" mask="url(#path-2-inside-2_52_1860)"/>
<mask id="path-3-inside-3_52_1860" fill="white">
<path d="M208.304 129.506C209.085 128.724 210.351 128.724 211.132 129.506L215.726 134.1C220.413 138.786 220.413 146.384 215.726 151.07L211.132 155.665C210.351 156.446 209.085 156.446 208.304 155.665L203.709 151.07C199.023 146.384 199.023 138.786 203.709 134.1L208.304 129.506Z"/>
</mask>
<path d="M208.304 129.506C209.085 128.724 210.351 128.724 211.132 129.506L215.726 134.1C220.413 138.786 220.413 146.384 215.726 151.07L211.132 155.665C210.351 156.446 209.085 156.446 208.304 155.665L203.709 151.07C199.023 146.384 199.023 138.786 203.709 134.1L208.304 129.506Z" stroke="#C69B7B" stroke-width="8" mask="url(#path-3-inside-3_52_1860)"/>
<mask id="path-4-inside-4_52_1860" fill="white">
<path d="M208.08 161.914C208.861 161.133 210.127 161.133 210.908 161.914L215.502 166.508C220.189 171.195 220.189 178.793 215.502 183.479L210.908 188.073C210.127 188.854 208.861 188.854 208.08 188.073L203.485 183.479C198.799 178.793 198.799 171.195 203.485 166.508L208.08 161.914Z"/>
</mask>
<path d="M208.08 161.914C208.861 161.133 210.127 161.133 210.908 161.914L215.502 166.508C220.189 171.195 220.189 178.793 215.502 183.479L210.908 188.073C210.127 188.854 208.861 188.854 208.08 188.073L203.485 183.479C198.799 178.793 198.799 171.195 203.485 166.508L208.08 161.914Z" stroke="#C69B7B" stroke-width="8" mask="url(#path-4-inside-4_52_1860)"/>
<path d="M217.574 120.983C219.901 120.789 221.892 120.819 223.732 121.473C224.95 121.906 225.858 122.897 227.002 124.469C228.032 125.885 229.351 127.956 231.27 129.309C233.404 130.814 236.273 131.832 238.397 132.735C240.781 133.747 242.253 134.613 242.895 135.684C243.708 137.042 244.115 138.726 244.482 140.868C244.833 142.911 245.15 145.417 245.892 147.866C246.552 150.047 247.949 152.334 248.933 154.189C250.009 156.219 250.716 157.917 250.716 159.5C250.716 161.014 250.063 162.351 249.011 164.011C248.043 165.538 246.58 167.527 245.892 169.8C245.128 172.323 244.993 175.195 244.737 177.434C244.462 179.842 244.047 181.725 242.995 183.164C241.952 184.591 240.283 185.571 238.083 186.58C236.043 187.516 233.375 188.532 231.27 190.016C229.377 191.35 228.064 193.308 227.032 194.654C225.904 196.125 224.988 197.08 223.732 197.527C221.892 198.18 219.901 198.211 217.574 198.018C215.383 197.836 212.627 197.411 210 197.411C207.373 197.411 204.617 197.836 202.426 198.018C200.099 198.211 198.108 198.18 196.268 197.527C194.588 196.93 193.239 195.872 191.8 194.504C190.444 193.216 188.824 191.446 186.983 190.055C185.188 188.698 182.973 187.584 181.263 186.588C179.433 185.523 177.979 184.497 177.005 183.164C175.893 181.643 175.302 179.665 174.828 177.273C174.385 175.036 174.021 172.213 173.29 169.8C172.635 167.636 171.454 165.694 170.67 164.167C169.837 162.546 169.284 161.139 169.284 159.5C169.284 157.917 169.991 156.219 171.067 154.189C172.051 152.334 173.448 150.047 174.108 147.866C174.865 145.366 175.005 142.842 175.258 140.935C175.523 138.932 175.919 137.322 177.005 135.836C177.956 134.534 179.375 133.593 181.205 132.607C182.912 131.687 185.152 130.653 186.983 129.27C188.856 127.855 190.477 125.988 191.84 124.619C193.292 123.161 194.626 122.056 196.268 121.473C198.108 120.819 200.099 120.789 202.426 120.983C204.617 121.165 207.373 121.588 210 121.588C212.627 121.588 215.383 121.165 217.574 120.983Z" stroke="#C69B7B" stroke-width="4"/>
<path d="M108.668 250.622C108.821 250.974 109.131 251.976 109.6 253.628C109.811 254.378 109.922 255.175 109.934 256.019H108.334C107.209 254.425 106.049 253.282 104.854 252.591C103.659 251.888 102.323 251.536 100.846 251.536C99.0298 251.536 97.5649 252.245 96.4516 253.663C94.9399 255.585 94.1841 258.263 94.1841 261.696C94.1841 263.688 94.313 265.106 94.5708 265.95C94.9927 267.321 95.5259 268.44 96.1704 269.308C96.6626 269.964 97.3071 270.485 98.104 270.872C99.1352 271.399 100.237 271.663 101.409 271.663C102.698 271.663 103.94 271.265 105.135 270.468C106.342 269.659 107.497 268.458 108.598 266.864C109.032 266.782 109.6 266.735 110.303 266.724C110.256 267.169 110.18 267.632 110.075 268.112C110.04 268.3 109.905 269.044 109.67 270.345L109.512 270.872L109.266 271.698C108.551 272.249 107.543 272.665 106.243 272.946C104.954 273.216 103.366 273.351 101.479 273.351C100.038 273.351 98.6723 273.216 97.3833 272.946C96.1059 272.677 95.0102 272.249 94.0962 271.663C92.7602 270.819 91.7114 269.905 90.9497 268.921C90.188 267.937 89.6196 266.864 89.2446 265.704C88.8813 264.544 88.6997 263.243 88.6997 261.802C88.6997 258.31 89.8481 255.427 92.145 253.153C94.4536 250.88 97.395 249.743 100.969 249.743C102.422 249.743 103.788 249.819 105.065 249.972C106.354 250.112 107.555 250.329 108.668 250.622ZM114.485 261.345C114.485 259.892 114.767 258.433 115.329 256.968C115.739 255.913 116.314 254.946 117.052 254.067C117.79 253.188 118.716 252.409 119.829 251.729C120.942 251.038 122.079 250.546 123.239 250.253C124.399 249.948 125.694 249.796 127.124 249.796C129.562 249.796 131.677 250.253 133.47 251.167C135.263 252.081 136.675 253.317 137.706 254.876C139.042 256.903 139.71 259.03 139.71 261.257C139.71 264.573 138.579 267.415 136.317 269.782C134.067 272.149 130.933 273.333 126.913 273.333C125.917 273.333 124.985 273.269 124.118 273.14C123.462 273.046 122.888 272.917 122.396 272.753C121.505 272.46 121.007 272.29 120.901 272.243C119.624 271.517 118.599 270.772 117.825 270.011C117.052 269.249 116.396 268.388 115.856 267.427C115.564 266.888 115.23 265.915 114.855 264.509C114.608 263.606 114.485 262.552 114.485 261.345ZM126.456 251.536C125.437 251.536 124.534 251.776 123.749 252.257C122.964 252.726 122.372 253.247 121.974 253.821C121.306 254.794 120.831 255.86 120.55 257.021C120.269 258.169 120.128 259.569 120.128 261.222C120.128 262.229 120.169 262.95 120.251 263.384C120.274 263.524 120.31 263.765 120.356 264.104C120.462 264.972 120.585 265.604 120.726 266.003C121.23 267.491 121.587 268.411 121.798 268.763C122.149 269.36 122.671 269.952 123.362 270.538C123.714 270.843 124.224 271.124 124.892 271.382C125.56 271.628 126.228 271.751 126.896 271.751C128.161 271.751 129.333 271.458 130.411 270.872C131.501 270.274 132.374 269.267 133.03 267.849C133.687 266.431 134.015 264.585 134.015 262.312C134.015 261.374 133.95 260.103 133.821 258.497L133.733 258.163C133.698 258.069 133.64 257.829 133.558 257.442C133.124 255.521 132.292 254.056 131.062 253.048C129.843 252.04 128.308 251.536 126.456 251.536ZM143.048 251.642L142.978 250.411H144.472L144.982 250.394C145.685 250.358 146.171 250.341 146.441 250.341C146.582 250.341 146.992 250.353 147.671 250.376C147.824 250.388 147.953 250.394 148.058 250.394C148.164 250.394 148.533 250.382 149.166 250.358C149.798 250.335 150.156 250.323 150.238 250.323C150.367 250.323 150.548 250.329 150.783 250.341C152.587 251.981 154.058 253.394 155.195 254.577C156.332 255.761 160.48 259.903 167.64 267.005V266.565L167.57 264.526C167.535 263.331 167.488 262.388 167.429 261.696C167.371 260.993 167.336 260.161 167.324 259.2C167.312 258.228 167.271 257.349 167.201 256.563C167.06 255.028 166.99 254.144 166.99 253.909C166.978 253.147 166.896 252.685 166.744 252.521C166.498 252.263 165.935 252.069 165.056 251.94C164.412 251.835 163.931 251.7 163.615 251.536L163.632 250.499L164.089 250.446L167.552 250.341L171.42 250.235C171.677 250.224 171.923 250.218 172.158 250.218L172.175 251.36C171.906 251.501 171.63 251.606 171.349 251.677C170.599 251.853 170.166 251.976 170.048 252.046C169.451 252.386 169.129 252.591 169.082 252.661C168.976 252.802 168.923 253.019 168.923 253.312C168.923 253.382 168.935 253.628 168.959 254.05C168.97 254.261 168.976 254.753 168.976 255.526C168.988 257.226 169.035 258.567 169.117 259.552C169.14 259.868 169.158 260.226 169.17 260.624L169.363 266.794C169.375 267.228 169.38 267.532 169.38 267.708V269.87L169.433 270.784L169.38 271.733C169.427 272.214 169.451 272.501 169.451 272.595V273.526L167.429 273.597L165.337 271.435L161.066 267.198L158.078 264.21L155.88 261.96C154.451 260.554 153.15 259.317 151.978 258.251L149.113 255.667L149.271 262.206C149.283 262.604 149.289 263.015 149.289 263.437L149.271 264.685L149.377 266.987C149.412 267.948 149.476 268.991 149.57 270.116C149.593 270.421 149.623 270.638 149.658 270.767C149.693 270.884 149.763 271.06 149.869 271.294C150.326 271.458 151.322 271.581 152.857 271.663C152.962 271.687 153.115 271.728 153.314 271.786L153.384 273.21L152.699 273.228C152.324 273.228 151.14 273.14 149.148 272.964C147.285 272.987 146.043 273.022 145.421 273.069C144.8 273.116 144.461 273.14 144.402 273.14C144.261 273.14 144.068 273.116 143.822 273.069C143.798 272.8 143.787 272.565 143.787 272.366C143.787 272.237 143.793 272.026 143.804 271.733C144.132 271.675 144.402 271.646 144.613 271.646C144.683 271.646 144.912 271.657 145.298 271.681C146.283 271.681 146.863 271.61 147.039 271.47C147.226 271.317 147.332 270.919 147.355 270.274C147.437 268.411 147.478 267.274 147.478 266.864V265.897L147.513 260.185L147.461 256.616C147.449 255.257 147.361 254.313 147.197 253.786C147.127 253.517 146.992 253.282 146.793 253.083C146.382 252.661 145.925 252.345 145.421 252.134C145.117 252.005 144.326 251.841 143.048 251.642ZM176.551 249.269H177.641C177.723 249.397 177.781 249.491 177.817 249.55C178.145 250.112 178.397 250.481 178.572 250.657C178.725 250.704 179.527 250.728 180.981 250.728C181.883 250.728 182.686 250.722 183.389 250.71L183.74 250.657L185.867 250.64L189.84 250.675H195.272L196.309 250.517C196.461 250.411 196.625 250.13 196.801 249.673C196.848 249.567 196.912 249.421 196.994 249.233L197.768 249.216C197.885 249.216 198.061 249.222 198.295 249.233C198.307 250.042 198.313 251.261 198.313 252.89L198.33 254.454L198.313 255.351C198.313 255.655 198.289 255.919 198.242 256.142C197.762 256.294 197.34 256.388 196.977 256.423C196.672 255.966 196.338 255.304 195.975 254.437C195.623 253.569 195.401 253.089 195.307 252.995C195.166 252.843 195.002 252.743 194.815 252.696C194.533 252.638 193.291 252.608 191.088 252.608C190.76 252.608 190.35 252.632 189.858 252.679C189.787 253.136 189.752 253.511 189.752 253.804L189.77 256.159V261.327L189.84 266.899L189.822 269.185C189.822 269.993 189.893 270.603 190.033 271.013C190.221 271.095 190.567 271.171 191.07 271.241C191.164 271.253 191.598 271.347 192.371 271.522C192.723 271.604 193.033 271.698 193.303 271.804C193.361 272.226 193.391 272.483 193.391 272.577C193.391 272.683 193.373 272.835 193.338 273.034C193.08 273.046 192.869 273.052 192.705 273.052C191.498 273.052 190.473 273.011 189.629 272.929C188.785 272.835 187.256 272.788 185.041 272.788C184.69 272.788 183.658 272.858 181.947 272.999C181.279 273.046 180.846 273.069 180.647 273.069C180.635 272.894 180.623 272.759 180.611 272.665L180.594 272.261V272.12C180.852 271.78 181.338 271.528 182.053 271.364C183.272 271.071 184.115 270.808 184.584 270.573C184.701 270.351 184.772 270.058 184.795 269.694C184.877 268.288 184.918 266.05 184.918 262.979L184.83 256.335C184.83 254.507 184.795 253.399 184.725 253.013C184.701 252.907 184.66 252.831 184.602 252.784C184.543 252.726 184.461 252.69 184.356 252.679C183.992 252.632 182.809 252.608 180.805 252.608C179.703 252.608 178.965 252.714 178.59 252.925C178.086 253.218 177.33 254.015 176.322 255.315C176.029 255.69 175.813 255.878 175.672 255.878C175.133 255.597 174.787 255.368 174.635 255.192C174.998 254.431 175.502 252.907 176.147 250.622C176.334 249.954 176.469 249.503 176.551 249.269ZM197.731 272.999L197.766 271.804C197.989 271.733 198.382 271.646 198.944 271.54C199.846 271.364 200.391 271.206 200.579 271.065C200.778 270.925 201.018 270.585 201.3 270.046L204.85 260.747L209.016 249.813C209.403 249.825 209.772 249.831 210.124 249.831H210.915L211.073 250.147L214.132 257.39C214.823 258.925 215.444 260.419 215.995 261.872C216.546 263.313 217.02 264.491 217.419 265.405C217.653 265.956 217.975 266.782 218.385 267.884C218.596 268.481 218.919 269.231 219.352 270.134C219.587 270.626 219.762 270.913 219.88 270.995C220.091 271.171 220.43 271.288 220.899 271.347C221.38 271.405 221.895 271.54 222.446 271.751C222.505 272.138 222.534 272.425 222.534 272.612C222.534 272.694 222.528 272.823 222.516 272.999C221.649 272.999 220.694 272.958 219.651 272.876C218.608 272.794 217.671 272.753 216.839 272.753C215.913 272.753 215.245 272.765 214.835 272.788L211.846 272.946L210.985 272.981C210.985 272.571 211.003 272.179 211.038 271.804L212.989 271.382C213.575 271.229 213.915 271.112 214.009 271.03C214.126 270.913 214.184 270.778 214.184 270.626C214.184 270.474 214.155 270.315 214.096 270.151L213.393 268.429L212.005 264.983L205.29 264.966C205.044 265.528 204.534 266.905 203.76 269.097C203.538 269.718 203.426 270.14 203.426 270.362C203.426 270.667 203.509 270.884 203.673 271.013C203.942 271.235 204.458 271.394 205.219 271.487C205.325 271.511 205.741 271.575 206.467 271.681C206.479 272.103 206.485 272.396 206.485 272.56C206.485 272.688 206.473 272.823 206.45 272.964C205.723 272.964 203.989 272.864 201.247 272.665L200.526 272.788C199.659 272.929 198.833 272.999 198.048 272.999H197.731ZM205.993 263.12C208.735 263.155 210.352 263.173 210.844 263.173L211.284 263.155C210.932 262.112 210.475 260.899 209.913 259.517C209.35 258.122 208.893 257.062 208.542 256.335L205.993 263.12ZM244.857 250.622C245.009 250.974 245.32 251.976 245.788 253.628C245.999 254.378 246.111 255.175 246.122 256.019H244.523C243.398 254.425 242.238 253.282 241.042 252.591C239.847 251.888 238.511 251.536 237.034 251.536C235.218 251.536 233.753 252.245 232.64 253.663C231.128 255.585 230.372 258.263 230.372 261.696C230.372 263.688 230.501 265.106 230.759 265.95C231.181 267.321 231.714 268.44 232.359 269.308C232.851 269.964 233.495 270.485 234.292 270.872C235.324 271.399 236.425 271.663 237.597 271.663C238.886 271.663 240.128 271.265 241.324 270.468C242.531 269.659 243.685 268.458 244.786 266.864C245.22 266.782 245.788 266.735 246.491 266.724C246.445 267.169 246.368 267.632 246.263 268.112C246.228 268.3 246.093 269.044 245.859 270.345L245.7 270.872L245.454 271.698C244.74 272.249 243.732 272.665 242.431 272.946C241.142 273.216 239.554 273.351 237.667 273.351C236.226 273.351 234.861 273.216 233.572 272.946C232.294 272.677 231.199 272.249 230.284 271.663C228.949 270.819 227.9 269.905 227.138 268.921C226.376 267.937 225.808 266.864 225.433 265.704C225.07 264.544 224.888 263.243 224.888 261.802C224.888 258.31 226.036 255.427 228.333 253.153C230.642 250.88 233.583 249.743 237.158 249.743C238.611 249.743 239.976 249.819 241.253 249.972C242.542 250.112 243.743 250.329 244.857 250.622ZM250.973 249.269H252.062C252.144 249.397 252.203 249.491 252.238 249.55C252.566 250.112 252.818 250.481 252.994 250.657C253.146 250.704 253.949 250.728 255.402 250.728C256.305 250.728 257.107 250.722 257.81 250.71L258.162 250.657L260.289 250.64L264.262 250.675H269.693L270.73 250.517C270.883 250.411 271.047 250.13 271.223 249.673C271.269 249.567 271.334 249.421 271.416 249.233L272.189 249.216C272.306 249.216 272.482 249.222 272.717 249.233C272.728 250.042 272.734 251.261 272.734 252.89L272.752 254.454L272.734 255.351C272.734 255.655 272.711 255.919 272.664 256.142C272.183 256.294 271.762 256.388 271.398 256.423C271.094 255.966 270.76 255.304 270.396 254.437C270.045 253.569 269.822 253.089 269.728 252.995C269.588 252.843 269.424 252.743 269.236 252.696C268.955 252.638 267.713 252.608 265.51 252.608C265.181 252.608 264.771 252.632 264.279 252.679C264.209 253.136 264.174 253.511 264.174 253.804L264.191 256.159V261.327L264.262 266.899L264.244 269.185C264.244 269.993 264.314 270.603 264.455 271.013C264.642 271.095 264.988 271.171 265.492 271.241C265.586 271.253 266.019 271.347 266.793 271.522C267.144 271.604 267.455 271.698 267.724 271.804C267.783 272.226 267.812 272.483 267.812 272.577C267.812 272.683 267.795 272.835 267.76 273.034C267.502 273.046 267.291 273.052 267.127 273.052C265.92 273.052 264.894 273.011 264.051 272.929C263.207 272.835 261.678 272.788 259.463 272.788C259.111 272.788 258.08 272.858 256.369 272.999C255.701 273.046 255.267 273.069 255.068 273.069C255.056 272.894 255.045 272.759 255.033 272.665L255.015 272.261V272.12C255.273 271.78 255.76 271.528 256.474 271.364C257.693 271.071 258.537 270.808 259.006 270.573C259.123 270.351 259.193 270.058 259.217 269.694C259.299 268.288 259.34 266.05 259.34 262.979L259.252 256.335C259.252 254.507 259.217 253.399 259.146 253.013C259.123 252.907 259.082 252.831 259.023 252.784C258.965 252.726 258.883 252.69 258.777 252.679C258.414 252.632 257.23 252.608 255.226 252.608C254.125 252.608 253.387 252.714 253.012 252.925C252.508 253.218 251.752 254.015 250.744 255.315C250.451 255.69 250.234 255.878 250.094 255.878C249.555 255.597 249.209 255.368 249.056 255.192C249.42 254.431 249.924 252.907 250.568 250.622C250.756 249.954 250.89 249.503 250.973 249.269ZM286.407 251.729L286.354 250.341C286.565 250.329 286.782 250.323 287.005 250.323C287.591 250.323 288.206 250.341 288.851 250.376C290.397 250.458 291.306 250.499 291.575 250.499C292.513 250.499 293.427 250.481 294.317 250.446C295.22 250.399 296.017 250.37 296.708 250.358C297.411 250.347 297.886 250.335 298.132 250.323L298.114 250.534L298.149 251.571V251.712C297.493 251.806 296.813 251.853 296.11 251.853C295.454 251.853 295.02 251.981 294.81 252.239C294.669 252.403 294.599 253.101 294.599 254.331C294.599 254.706 294.604 255.011 294.616 255.245L294.634 255.878L294.599 257.53L294.704 258.937L294.634 261.978L294.862 266.39C294.921 267.667 295.202 268.728 295.706 269.571C296.081 270.192 296.608 270.679 297.288 271.03C298.272 271.522 299.239 271.769 300.188 271.769C301.313 271.769 302.362 271.622 303.335 271.329C303.909 271.165 304.448 270.901 304.952 270.538C305.468 270.163 305.825 269.823 306.024 269.519C306.446 268.874 306.739 268.271 306.903 267.708C307.126 266.935 307.237 265.733 307.237 264.104C307.237 261.269 307.085 258.075 306.78 254.524L306.71 253.593C306.675 252.901 306.546 252.438 306.323 252.204C305.948 251.841 305.526 251.659 305.058 251.659L303.405 251.694L303.177 251.642L303.212 250.306H304.601L307.958 250.446C309.083 250.446 310.155 250.394 311.175 250.288L311.474 250.323C311.544 250.71 311.579 250.979 311.579 251.132C311.579 251.261 311.556 251.419 311.509 251.606C311.075 251.735 310.618 251.812 310.138 251.835C309.353 251.94 308.919 252.028 308.837 252.099C308.673 252.239 308.591 252.456 308.591 252.749C308.591 252.96 308.608 253.265 308.644 253.663C308.679 253.956 308.696 254.466 308.696 255.192C308.696 255.603 308.696 255.925 308.696 256.159C308.708 256.394 308.72 256.634 308.731 256.88C308.767 257.724 308.796 258.579 308.819 259.446L308.995 263.015C308.995 265.405 308.913 267.005 308.749 267.813C308.585 268.622 308.362 269.261 308.081 269.729C307.647 270.433 307.032 271.083 306.235 271.681C305.438 272.267 304.442 272.735 303.247 273.087C302.052 273.427 300.657 273.597 299.063 273.597C297.247 273.597 295.688 273.356 294.388 272.876C293.087 272.384 292.103 271.745 291.435 270.96C290.778 270.163 290.327 269.132 290.081 267.866C289.905 266.999 289.817 265.757 289.817 264.14L289.835 255.755C289.835 253.774 289.741 252.655 289.554 252.397C289.296 252.034 288.493 251.829 287.145 251.782C286.853 251.782 286.606 251.765 286.407 251.729ZM329.402 250.763C329.519 251.161 329.625 251.765 329.718 252.573C329.859 253.78 329.929 254.718 329.929 255.386C329.929 255.597 329.906 255.825 329.859 256.071L329.683 256.124L328.418 256.036L328.207 256.001C327.691 254.454 327.175 253.405 326.66 252.854C325.769 251.917 324.72 251.448 323.513 251.448C322.365 251.448 321.451 251.753 320.771 252.362C320.103 252.96 319.769 253.704 319.769 254.595C319.769 255.345 320.103 256.065 320.771 256.757C321.427 257.448 322.822 258.11 324.955 258.743C325.669 258.954 326.531 259.294 327.539 259.763C328.558 260.231 329.332 260.741 329.859 261.292C330.562 262.019 331.043 262.722 331.3 263.401C331.57 264.069 331.705 264.907 331.705 265.915C331.705 267.017 331.5 268.101 331.089 269.167C330.867 269.729 330.509 270.263 330.017 270.767C329.666 271.118 329.121 271.534 328.382 272.015C327.644 272.483 326.876 272.823 326.08 273.034C325.294 273.245 324.281 273.351 323.039 273.351C322.218 273.351 321.24 273.233 320.103 272.999L317.994 272.384C317.408 272.22 317.039 272.073 316.886 271.944C316.828 271.897 316.775 271.786 316.728 271.61V271.417C316.728 271.288 316.699 270.485 316.64 269.009C316.617 268.247 316.605 267.708 316.605 267.392V266.724L318.222 266.688C318.785 267.989 319.148 268.774 319.312 269.044C319.675 269.642 320.074 270.128 320.507 270.503C320.953 270.866 321.48 271.159 322.089 271.382C322.699 271.593 323.361 271.698 324.076 271.698C324.709 271.698 325.406 271.563 326.168 271.294C326.929 271.024 327.539 270.585 327.996 269.976C328.464 269.354 328.699 268.692 328.699 267.989C328.699 267.122 328.294 266.319 327.486 265.581C326.994 265.124 325.669 264.515 323.513 263.753C321.357 262.991 319.863 262.312 319.031 261.714C318.199 261.116 317.543 260.319 317.062 259.323C316.582 258.315 316.341 257.349 316.341 256.423C316.341 254.56 317.009 252.978 318.345 251.677C319.681 250.376 321.65 249.726 324.251 249.726C324.814 249.726 325.646 249.825 326.748 250.024C327.416 250.142 328.3 250.388 329.402 250.763Z" fill="#FFFDFB"/>
<mask id="path-7-inside-5_52_1860" fill="white">
<path d="M91 312.122H329V426.122H91V312.122Z"/>
</mask>
<path d="M91 313.122H329V311.122H91V313.122Z" fill="#CAC9CF" mask="url(#path-7-inside-5_52_1860)"/>
<path d="M125.2 352.122V341.94H131.722V343.486H127.044V346.251H131.275V347.797H127.044V352.122H125.2ZM136.094 352.271C135.348 352.271 134.702 352.107 134.155 351.779C133.608 351.451 133.184 350.992 132.882 350.402C132.584 349.812 132.435 349.123 132.435 348.334C132.435 347.545 132.584 346.854 132.882 346.261C133.184 345.667 133.608 345.207 134.155 344.878C134.702 344.55 135.348 344.386 136.094 344.386C136.839 344.386 137.486 344.55 138.033 344.878C138.579 345.207 139.002 345.667 139.3 346.261C139.602 346.854 139.753 347.545 139.753 348.334C139.753 349.123 139.602 349.812 139.3 350.402C139.002 350.992 138.579 351.451 138.033 351.779C137.486 352.107 136.839 352.271 136.094 352.271ZM136.104 350.829C136.508 350.829 136.846 350.718 137.118 350.496C137.39 350.271 137.592 349.969 137.724 349.592C137.86 349.214 137.928 348.793 137.928 348.329C137.928 347.861 137.86 347.439 137.724 347.061C137.592 346.68 137.39 346.377 137.118 346.151C136.846 345.926 136.508 345.813 136.104 345.813C135.689 345.813 135.345 345.926 135.07 346.151C134.798 346.377 134.594 346.68 134.458 347.061C134.325 347.439 134.259 347.861 134.259 348.329C134.259 348.793 134.325 349.214 134.458 349.592C134.594 349.969 134.798 350.271 135.07 350.496C135.345 350.718 135.689 350.829 136.104 350.829ZM143.08 341.94V352.122H141.28V341.94H143.08ZM146.73 341.94V352.122H144.931V341.94H146.73ZM151.912 352.271C151.166 352.271 150.52 352.107 149.973 351.779C149.426 351.451 149.002 350.992 148.7 350.402C148.402 349.812 148.253 349.123 148.253 348.334C148.253 347.545 148.402 346.854 148.7 346.261C149.002 345.667 149.426 345.207 149.973 344.878C150.52 344.55 151.166 344.386 151.912 344.386C152.658 344.386 153.304 344.55 153.851 344.878C154.398 345.207 154.82 345.667 155.119 346.261C155.42 346.854 155.571 347.545 155.571 348.334C155.571 349.123 155.42 349.812 155.119 350.402C154.82 350.992 154.398 351.451 153.851 351.779C153.304 352.107 152.658 352.271 151.912 352.271ZM151.922 350.829C152.326 350.829 152.664 350.718 152.936 350.496C153.208 350.271 153.41 349.969 153.543 349.592C153.679 349.214 153.747 348.793 153.747 348.329C153.747 347.861 153.679 347.439 153.543 347.061C153.41 346.68 153.208 346.377 152.936 346.151C152.664 345.926 152.326 345.813 151.922 345.813C151.508 345.813 151.163 345.926 150.888 346.151C150.616 346.377 150.412 346.68 150.276 347.061C150.144 347.439 150.078 347.861 150.078 348.329C150.078 348.793 150.144 349.214 150.276 349.592C150.412 349.969 150.616 350.271 150.888 350.496C151.163 350.718 151.508 350.829 151.922 350.829ZM158.456 352.122L156.298 344.486H158.133L159.475 349.855H159.545L160.917 344.486H162.731L164.104 349.825H164.178L165.501 344.486H167.34L165.178 352.122H163.303L161.871 346.962H161.767L160.335 352.122H158.456ZM176.937 348.91V344.486H178.736V352.122H176.991V350.765H176.912C176.739 351.192 176.456 351.542 176.062 351.814C175.67 352.086 175.188 352.222 174.615 352.222C174.114 352.222 173.672 352.11 173.287 351.888C172.906 351.663 172.608 351.337 172.393 350.909C172.177 350.478 172.069 349.958 172.069 349.348V344.486H173.869V349.07C173.869 349.553 174.002 349.938 174.267 350.223C174.532 350.508 174.88 350.65 175.311 350.65C175.576 350.65 175.833 350.586 176.081 350.457C176.33 350.327 176.534 350.135 176.693 349.88C176.855 349.621 176.937 349.298 176.937 348.91ZM186.622 346.504L184.982 346.683C184.935 346.517 184.854 346.362 184.738 346.216C184.626 346.07 184.473 345.952 184.281 345.863C184.089 345.773 183.853 345.729 183.575 345.729C183.2 345.729 182.885 345.81 182.63 345.972C182.378 346.135 182.254 346.345 182.257 346.604C182.254 346.826 182.335 347.006 182.501 347.146C182.67 347.285 182.948 347.399 183.336 347.489L184.639 347.767C185.361 347.923 185.898 348.17 186.25 348.508C186.604 348.846 186.783 349.288 186.787 349.835C186.783 350.316 186.642 350.74 186.364 351.108C186.089 351.472 185.706 351.757 185.215 351.963C184.725 352.168 184.162 352.271 183.525 352.271C182.59 352.271 181.838 352.076 181.268 351.685C180.698 351.29 180.358 350.742 180.249 350.039L182.004 349.87C182.083 350.215 182.252 350.475 182.511 350.65C182.769 350.826 183.106 350.914 183.52 350.914C183.948 350.914 184.291 350.826 184.549 350.65C184.811 350.475 184.942 350.258 184.942 349.999C184.942 349.78 184.858 349.6 184.689 349.457C184.523 349.315 184.264 349.205 183.913 349.129L182.61 348.856C181.878 348.703 181.336 348.446 180.985 348.085C180.633 347.721 180.459 347.26 180.463 346.703C180.459 346.232 180.587 345.825 180.845 345.48C181.107 345.132 181.47 344.864 181.934 344.675C182.402 344.482 182.94 344.386 183.55 344.386C184.445 344.386 185.149 344.577 185.663 344.958C186.18 345.339 186.5 345.855 186.622 346.504ZM195.074 352.271C194.328 352.271 193.682 352.107 193.135 351.779C192.588 351.451 192.164 350.992 191.863 350.402C191.564 349.812 191.415 349.123 191.415 348.334C191.415 347.545 191.564 346.854 191.863 346.261C192.164 345.667 192.588 345.207 193.135 344.878C193.682 344.55 194.328 344.386 195.074 344.386C195.82 344.386 196.466 344.55 197.013 344.878C197.56 345.207 197.983 345.667 198.281 346.261C198.582 346.854 198.733 347.545 198.733 348.334C198.733 349.123 198.582 349.812 198.281 350.402C197.983 350.992 197.56 351.451 197.013 351.779C196.466 352.107 195.82 352.271 195.074 352.271ZM195.084 350.829C195.488 350.829 195.827 350.718 196.098 350.496C196.37 350.271 196.572 349.969 196.705 349.592C196.841 349.214 196.909 348.793 196.909 348.329C196.909 347.861 196.841 347.439 196.705 347.061C196.572 346.68 196.37 346.377 196.098 346.151C195.827 345.926 195.488 345.813 195.084 345.813C194.67 345.813 194.325 345.926 194.05 346.151C193.778 346.377 193.574 346.68 193.439 347.061C193.306 347.439 193.24 347.861 193.24 348.329C193.24 348.793 193.306 349.214 193.439 349.592C193.574 349.969 193.778 350.271 194.05 350.496C194.325 350.718 194.67 350.829 195.084 350.829ZM202.06 347.648V352.122H200.261V344.486H201.981V345.783H202.07C202.246 345.356 202.526 345.016 202.911 344.764C203.298 344.512 203.777 344.386 204.347 344.386C204.874 344.386 205.333 344.499 205.725 344.724C206.119 344.95 206.424 345.276 206.639 345.704C206.858 346.131 206.966 346.65 206.962 347.26V352.122H205.163V347.538C205.163 347.028 205.03 346.628 204.765 346.34C204.503 346.052 204.14 345.908 203.676 345.908C203.361 345.908 203.081 345.977 202.836 346.116C202.594 346.252 202.404 346.449 202.264 346.708C202.128 346.967 202.06 347.28 202.06 347.648ZM218.3 346.504L216.66 346.683C216.613 346.517 216.532 346.362 216.416 346.216C216.303 346.07 216.151 345.952 215.959 345.863C215.766 345.773 215.531 345.729 215.253 345.729C214.878 345.729 214.563 345.81 214.308 345.972C214.056 346.135 213.932 346.345 213.935 346.604C213.932 346.826 214.013 347.006 214.179 347.146C214.348 347.285 214.626 347.399 215.014 347.489L216.317 347.767C217.039 347.923 217.576 348.17 217.927 348.508C218.282 348.846 218.461 349.288 218.464 349.835C218.461 350.316 218.32 350.74 218.042 351.108C217.767 351.472 217.384 351.757 216.893 351.963C216.403 352.168 215.839 352.271 215.203 352.271C214.268 352.271 213.516 352.076 212.946 351.685C212.376 351.29 212.036 350.742 211.927 350.039L213.682 349.87C213.761 350.215 213.93 350.475 214.189 350.65C214.447 350.826 214.784 350.914 215.198 350.914C215.625 350.914 215.969 350.826 216.227 350.65C216.489 350.475 216.62 350.258 216.62 349.999C216.62 349.78 216.535 349.6 216.366 349.457C216.201 349.315 215.942 349.205 215.591 349.129L214.288 348.856C213.556 348.703 213.014 348.446 212.662 348.085C212.311 347.721 212.137 347.26 212.14 346.703C212.137 346.232 212.265 345.825 212.523 345.48C212.785 345.132 213.148 344.864 213.612 344.675C214.079 344.482 214.618 344.386 215.228 344.386C216.123 344.386 216.827 344.577 217.341 344.958C217.858 345.339 218.178 345.855 218.3 346.504ZM223.279 352.271C222.534 352.271 221.887 352.107 221.34 351.779C220.793 351.451 220.369 350.992 220.068 350.402C219.769 349.812 219.62 349.123 219.62 348.334C219.62 347.545 219.769 346.854 220.068 346.261C220.369 345.667 220.793 345.207 221.34 344.878C221.887 344.55 222.534 344.386 223.279 344.386C224.025 344.386 224.671 344.55 225.218 344.878C225.765 345.207 226.188 345.667 226.486 346.261C226.788 346.854 226.938 347.545 226.938 348.334C226.938 349.123 226.788 349.812 226.486 350.402C226.188 350.992 225.765 351.451 225.218 351.779C224.671 352.107 224.025 352.271 223.279 352.271ZM223.289 350.829C223.694 350.829 224.032 350.718 224.303 350.496C224.575 350.271 224.777 349.969 224.91 349.592C225.046 349.214 225.114 348.793 225.114 348.329C225.114 347.861 225.046 347.439 224.91 347.061C224.777 346.68 224.575 346.377 224.303 346.151C224.032 345.926 223.694 345.813 223.289 345.813C222.875 345.813 222.53 345.926 222.255 346.151C221.983 346.377 221.779 346.68 221.644 347.061C221.511 347.439 221.445 347.861 221.445 348.329C221.445 348.793 221.511 349.214 221.644 349.592C221.779 349.969 221.983 350.271 222.255 350.496C222.53 350.718 222.875 350.829 223.289 350.829ZM231.797 352.271C231.035 352.271 230.38 352.104 229.833 351.769C229.289 351.434 228.87 350.972 228.575 350.382C228.284 349.789 228.138 349.106 228.138 348.334C228.138 347.558 228.287 346.874 228.585 346.28C228.883 345.684 229.304 345.22 229.848 344.888C230.395 344.554 231.041 344.386 231.787 344.386C232.407 344.386 232.955 344.501 233.432 344.729C233.913 344.955 234.296 345.275 234.581 345.689C234.866 346.1 235.028 346.58 235.068 347.131H233.348C233.278 346.763 233.113 346.456 232.851 346.211C232.592 345.962 232.246 345.838 231.812 345.838C231.444 345.838 231.121 345.937 230.842 346.136C230.564 346.332 230.347 346.614 230.191 346.981C230.039 347.349 229.962 347.79 229.962 348.304C229.962 348.824 230.039 349.272 230.191 349.646C230.343 350.017 230.557 350.304 230.832 350.506C231.111 350.705 231.437 350.805 231.812 350.805C232.077 350.805 232.314 350.755 232.523 350.655C232.735 350.553 232.912 350.405 233.055 350.213C233.197 350.021 233.295 349.787 233.348 349.512H235.068C235.025 350.052 234.866 350.531 234.591 350.949C234.316 351.363 233.941 351.688 233.467 351.923C232.993 352.155 232.436 352.271 231.797 352.271ZM236.546 352.122V344.486H238.346V352.122H236.546ZM237.451 343.402C237.166 343.402 236.92 343.307 236.715 343.119C236.509 342.926 236.407 342.696 236.407 342.427C236.407 342.156 236.509 341.925 236.715 341.736C236.92 341.544 237.166 341.448 237.451 341.448C237.739 341.448 237.984 341.544 238.187 341.736C238.392 341.925 238.495 342.156 238.495 342.427C238.495 342.696 238.392 342.926 238.187 343.119C237.984 343.307 237.739 343.402 237.451 343.402ZM242.394 352.276C241.91 352.276 241.474 352.19 241.086 352.018C240.702 351.842 240.397 351.583 240.171 351.242C239.949 350.901 239.838 350.48 239.838 349.979C239.838 349.548 239.918 349.192 240.077 348.91C240.236 348.629 240.453 348.403 240.728 348.234C241.003 348.065 241.313 347.938 241.658 347.851C242.006 347.762 242.366 347.697 242.737 347.658C243.184 347.611 243.547 347.57 243.826 347.533C244.104 347.494 244.306 347.434 244.432 347.354C244.561 347.271 244.626 347.144 244.626 346.972V346.942C244.626 346.567 244.515 346.277 244.293 346.072C244.071 345.866 243.751 345.763 243.333 345.763C242.893 345.763 242.543 345.86 242.284 346.052C242.029 346.244 241.857 346.471 241.767 346.733L240.087 346.494C240.22 346.03 240.438 345.642 240.743 345.331C241.048 345.016 241.421 344.781 241.862 344.625C242.303 344.466 242.79 344.386 243.323 344.386C243.691 344.386 244.058 344.429 244.422 344.516C244.787 344.602 245.12 344.744 245.421 344.943C245.723 345.139 245.965 345.405 246.147 345.744C246.333 346.082 246.426 346.504 246.426 347.011V352.122H244.696V351.073H244.636C244.527 351.285 244.372 351.484 244.174 351.67C243.978 351.852 243.731 351.999 243.433 352.112C243.138 352.222 242.791 352.276 242.394 352.276ZM242.861 350.954C243.222 350.954 243.536 350.882 243.801 350.74C244.066 350.594 244.27 350.402 244.412 350.163C244.558 349.925 244.631 349.664 244.631 349.383V348.483C244.575 348.529 244.479 348.572 244.343 348.612C244.21 348.652 244.061 348.687 243.895 348.717C243.729 348.746 243.565 348.773 243.403 348.796C243.241 348.819 243.1 348.839 242.98 348.856C242.712 348.892 242.472 348.952 242.26 349.035C242.047 349.118 241.88 349.234 241.757 349.383C241.635 349.529 241.573 349.717 241.573 349.949C241.573 350.281 241.694 350.531 241.936 350.7C242.178 350.869 242.487 350.954 242.861 350.954ZM250.035 341.94V352.122H248.235V341.94H250.035ZM255.358 352.122V344.486H257.079V345.783H257.168C257.327 345.346 257.591 345.004 257.959 344.759C258.326 344.511 258.766 344.386 259.276 344.386C259.793 344.386 260.229 344.512 260.584 344.764C260.942 345.013 261.193 345.352 261.339 345.783H261.419C261.588 345.359 261.873 345.021 262.274 344.769C262.678 344.514 263.157 344.386 263.711 344.386C264.413 344.386 264.987 344.608 265.431 345.052C265.875 345.497 266.097 346.145 266.097 346.996V352.122H264.292V347.275C264.292 346.801 264.166 346.454 263.915 346.236C263.663 346.014 263.354 345.903 262.99 345.903C262.556 345.903 262.216 346.038 261.971 346.31C261.729 346.579 261.608 346.928 261.608 347.359V352.122H259.843V347.2C259.843 346.806 259.723 346.491 259.485 346.256C259.25 346.02 258.941 345.903 258.56 345.903C258.302 345.903 258.066 345.969 257.854 346.101C257.642 346.231 257.473 346.415 257.347 346.653C257.221 346.889 257.158 347.164 257.158 347.479V352.122H255.358ZM271.304 352.271C270.538 352.271 269.877 352.112 269.32 351.794C268.766 351.472 268.34 351.018 268.042 350.432C267.744 349.842 267.595 349.147 267.595 348.349C267.595 347.563 267.744 346.874 268.042 346.28C268.344 345.684 268.765 345.22 269.305 344.888C269.845 344.554 270.48 344.386 271.209 344.386C271.68 344.386 272.124 344.463 272.541 344.615C272.962 344.764 273.334 344.996 273.655 345.311C273.98 345.626 274.235 346.027 274.421 346.514C274.606 346.998 274.699 347.575 274.699 348.244V348.796H268.44V347.583H272.974C272.971 347.238 272.896 346.932 272.75 346.663C272.604 346.391 272.401 346.178 272.139 346.022C271.88 345.866 271.579 345.788 271.234 345.788C270.866 345.788 270.543 345.878 270.265 346.057C269.986 346.232 269.769 346.464 269.613 346.753C269.461 347.038 269.383 347.351 269.38 347.692V348.751C269.38 349.195 269.461 349.577 269.623 349.895C269.786 350.21 270.013 350.452 270.304 350.621C270.596 350.786 270.937 350.869 271.328 350.869C271.59 350.869 271.827 350.833 272.039 350.76C272.251 350.684 272.435 350.573 272.591 350.427C272.747 350.281 272.865 350.1 272.944 349.885L274.625 350.074C274.519 350.518 274.316 350.906 274.018 351.237C273.723 351.565 273.345 351.82 272.885 352.003C272.424 352.182 271.897 352.271 271.304 352.271ZM279.056 352.256C278.456 352.256 277.919 352.102 277.445 351.794C276.971 351.486 276.596 351.038 276.321 350.452C276.046 349.865 275.909 349.152 275.909 348.314C275.909 347.465 276.048 346.749 276.326 346.166C276.608 345.579 276.987 345.137 277.465 344.839C277.942 344.537 278.474 344.386 279.06 344.386C279.508 344.386 279.876 344.463 280.164 344.615C280.453 344.764 280.681 344.945 280.85 345.157C281.019 345.366 281.15 345.563 281.243 345.748H281.318V341.94H283.122V352.122H281.352V350.919H281.243C281.15 351.105 281.016 351.302 280.84 351.511C280.665 351.716 280.433 351.892 280.144 352.038C279.856 352.183 279.493 352.256 279.056 352.256ZM279.558 350.78C279.939 350.78 280.264 350.677 280.532 350.472C280.801 350.263 281.004 349.973 281.144 349.601C281.283 349.23 281.352 348.798 281.352 348.304C281.352 347.81 281.283 347.381 281.144 347.016C281.008 346.652 280.806 346.368 280.537 346.166C280.272 345.964 279.945 345.863 279.558 345.863C279.157 345.863 278.822 345.967 278.553 346.176C278.285 346.385 278.083 346.673 277.947 347.041C277.811 347.409 277.743 347.83 277.743 348.304C277.743 348.781 277.811 349.207 277.947 349.582C278.086 349.953 278.29 350.246 278.558 350.462C278.83 350.674 279.163 350.78 279.558 350.78ZM285.04 352.122V344.486H286.84V352.122H285.04ZM285.945 343.402C285.66 343.402 285.415 343.307 285.209 343.119C285.004 342.926 284.901 342.696 284.901 342.427C284.901 342.156 285.004 341.925 285.209 341.736C285.415 341.544 285.66 341.448 285.945 341.448C286.233 341.448 286.479 341.544 286.681 341.736C286.886 341.925 286.989 342.156 286.989 342.427C286.989 342.696 286.886 342.926 286.681 343.119C286.479 343.307 286.233 343.402 285.945 343.402ZM290.888 352.276C290.404 352.276 289.968 352.19 289.58 352.018C289.196 351.842 288.891 351.583 288.666 351.242C288.444 350.901 288.333 350.48 288.333 349.979C288.333 349.548 288.412 349.192 288.571 348.91C288.73 348.629 288.947 348.403 289.222 348.234C289.498 348.065 289.807 347.938 290.152 347.851C290.5 347.762 290.86 347.697 291.231 347.658C291.678 347.611 292.041 347.57 292.32 347.533C292.598 347.494 292.8 347.434 292.926 347.354C293.056 347.271 293.12 347.144 293.12 346.972V346.942C293.12 346.567 293.009 346.277 292.787 346.072C292.565 345.866 292.245 345.763 291.828 345.763C291.387 345.763 291.037 345.86 290.779 346.052C290.523 346.244 290.351 346.471 290.261 346.733L288.581 346.494C288.714 346.03 288.932 345.642 289.237 345.331C289.542 345.016 289.915 344.781 290.356 344.625C290.797 344.466 291.284 344.386 291.818 344.386C292.185 344.386 292.552 344.429 292.916 344.516C293.281 344.602 293.614 344.744 293.916 344.943C294.217 345.139 294.459 345.405 294.641 345.744C294.827 346.082 294.92 346.504 294.92 347.011V352.122H293.19V351.073H293.13C293.021 351.285 292.867 351.484 292.668 351.67C292.472 351.852 292.225 351.999 291.927 352.112C291.632 352.222 291.286 352.276 290.888 352.276ZM291.355 350.954C291.717 350.954 292.03 350.882 292.295 350.74C292.56 350.594 292.764 350.402 292.906 350.163C293.052 349.925 293.125 349.664 293.125 349.383V348.483C293.069 348.529 292.973 348.572 292.837 348.612C292.704 348.652 292.555 348.687 292.389 348.717C292.224 348.746 292.06 348.773 291.897 348.796C291.735 348.819 291.594 348.839 291.475 348.856C291.206 348.892 290.966 348.952 290.754 349.035C290.542 349.118 290.374 349.234 290.252 349.383C290.129 349.529 290.068 349.717 290.068 349.949C290.068 350.281 290.189 350.531 290.431 350.7C290.672 350.869 290.981 350.954 291.355 350.954Z" fill="white"/>
<rect x="118" y="372.122" width="24" height="24" fill="#C69B7B"/>
<path d="M130.976 390.122V384.648H132.906L133.195 382.515H130.976V381.153C130.976 380.535 131.156 380.115 132.086 380.115L133.273 380.114V378.206C133.068 378.18 132.363 378.122 131.544 378.122C129.833 378.122 128.662 379.116 128.662 380.942V382.515H126.727V384.648H128.662V390.122H130.976V390.122Z" fill="white"/>
<rect x="158" y="372.122" width="24" height="24" fill="#C69B7B"/>
<path d="M172.018 379.256V379.254H172.581L172.786 379.295C172.923 379.322 173.048 379.357 173.16 379.4C173.271 379.443 173.38 379.494 173.484 379.551C173.589 379.609 173.684 379.668 173.769 379.727C173.853 379.787 173.929 379.849 173.996 379.915C174.062 379.982 174.166 380 174.307 379.967C174.447 379.935 174.599 379.89 174.761 379.832C174.923 379.775 175.084 379.71 175.243 379.638C175.401 379.566 175.498 379.52 175.533 379.501C175.566 379.48 175.585 379.47 175.587 379.468L175.589 379.465L175.6 379.459L175.61 379.454L175.621 379.449L175.632 379.443L175.634 379.44L175.638 379.438L175.641 379.436L175.643 379.432L175.654 379.429L175.665 379.427L175.662 379.443L175.659 379.459L175.654 379.476L175.648 379.492L175.643 379.503L175.638 379.513L175.632 379.53C175.628 379.54 175.625 379.555 175.621 379.573C175.618 379.591 175.583 379.663 175.518 379.789C175.454 379.915 175.372 380.043 175.275 380.173C175.178 380.302 175.09 380.4 175.013 380.467C174.935 380.534 174.884 380.58 174.858 380.607C174.833 380.634 174.803 380.66 174.766 380.683L174.712 380.718L174.702 380.724L174.691 380.729L174.689 380.732L174.685 380.735L174.682 380.737L174.68 380.74L174.669 380.745L174.658 380.751L174.656 380.754L174.653 380.756L174.65 380.758L174.647 380.762L174.645 380.765L174.642 380.767L174.639 380.769L174.637 380.772H174.691L174.994 380.708C175.196 380.664 175.389 380.612 175.573 380.551L175.865 380.454L175.897 380.443L175.913 380.437L175.924 380.432L175.935 380.427L175.946 380.421L175.957 380.416L175.978 380.413L176 380.41V380.432L175.995 380.434L175.989 380.437L175.987 380.441L175.984 380.443L175.981 380.445L175.978 380.448L175.976 380.451L175.973 380.454L175.97 380.456L175.968 380.459L175.965 380.462L175.962 380.464L175.957 380.475L175.951 380.486L175.948 380.488C175.947 380.49 175.901 380.552 175.811 380.672C175.72 380.793 175.672 380.854 175.665 380.856C175.657 380.858 175.647 380.869 175.634 380.888C175.622 380.908 175.546 380.988 175.405 381.129C175.264 381.269 175.126 381.394 174.992 381.504C174.856 381.614 174.787 381.75 174.786 381.91C174.784 382.07 174.775 382.251 174.761 382.453C174.747 382.654 174.72 382.872 174.68 383.106C174.64 383.34 174.579 383.605 174.496 383.901C174.413 384.196 174.312 384.484 174.193 384.765C174.074 385.046 173.95 385.298 173.82 385.521C173.69 385.745 173.571 385.934 173.463 386.089C173.354 386.244 173.244 386.389 173.133 386.526C173.021 386.663 172.879 386.817 172.708 386.989C172.537 387.16 172.443 387.253 172.427 387.27C172.41 387.286 172.34 387.345 172.215 387.447C172.091 387.55 171.957 387.653 171.815 387.756C171.673 387.858 171.542 387.944 171.423 388.012C171.304 388.081 171.16 388.159 170.992 388.247C170.825 388.335 170.644 388.417 170.449 388.493C170.254 388.569 170.049 388.639 169.832 388.704C169.616 388.768 169.407 388.819 169.205 388.855C169.003 388.891 168.774 388.922 168.518 388.947L168.133 388.985V388.99H167.43V388.985L167.338 388.979C167.277 388.976 167.226 388.972 167.187 388.968C167.147 388.965 166.997 388.945 166.738 388.909C166.478 388.873 166.274 388.837 166.126 388.801C165.978 388.765 165.758 388.696 165.466 388.596C165.174 388.495 164.924 388.393 164.716 388.29C164.509 388.188 164.379 388.123 164.327 388.095C164.275 388.069 164.216 388.036 164.151 387.996L164.054 387.936L164.052 387.933L164.049 387.931L164.045 387.929L164.043 387.926L164.032 387.92L164.022 387.915L164.019 387.912L164.016 387.909L164.013 387.907L164.011 387.904L164.009 387.901L164.005 387.899H164V387.877L164.011 387.879L164.022 387.882L164.07 387.888C164.103 387.891 164.191 387.897 164.335 387.904C164.48 387.911 164.633 387.911 164.795 387.904C164.958 387.897 165.124 387.881 165.293 387.855C165.463 387.83 165.663 387.787 165.894 387.726C166.124 387.665 166.337 387.592 166.53 387.507C166.722 387.422 166.86 387.359 166.941 387.317C167.022 387.276 167.145 387.2 167.311 387.088L167.56 386.921L167.562 386.917L167.565 386.915L167.569 386.913L167.571 386.91L167.573 386.907L167.576 386.905L167.579 386.902L167.582 386.899L167.592 386.896L167.603 386.894L167.605 386.883L167.609 386.872L167.612 386.87L167.614 386.867L167.528 386.861C167.47 386.858 167.414 386.854 167.36 386.85C167.306 386.847 167.221 386.831 167.106 386.802C166.99 386.773 166.866 386.73 166.732 386.672C166.599 386.615 166.469 386.546 166.343 386.467C166.216 386.388 166.125 386.322 166.069 386.269C166.013 386.217 165.941 386.144 165.852 386.049C165.764 385.953 165.688 385.855 165.623 385.754C165.558 385.653 165.496 385.537 165.437 385.405L165.347 385.208L165.342 385.192L165.336 385.176L165.333 385.165L165.331 385.154L165.347 385.156L165.363 385.159L165.482 385.176C165.562 385.186 165.686 385.19 165.856 385.186C166.025 385.183 166.142 385.176 166.207 385.165C166.272 385.154 166.312 385.147 166.326 385.143L166.348 385.138L166.375 385.132L166.402 385.127L166.404 385.124L166.408 385.122L166.411 385.119L166.413 385.116L166.391 385.111L166.37 385.105L166.348 385.1L166.326 385.095L166.305 385.089C166.29 385.086 166.265 385.078 166.229 385.068C166.193 385.057 166.096 385.017 165.937 384.949C165.778 384.88 165.652 384.814 165.558 384.749C165.464 384.684 165.375 384.613 165.29 384.536C165.205 384.458 165.113 384.358 165.012 384.236C164.911 384.113 164.821 383.971 164.741 383.809C164.662 383.647 164.602 383.492 164.563 383.344C164.523 383.197 164.497 383.047 164.485 382.896L164.465 382.669L164.476 382.671L164.487 382.674L164.498 382.68L164.509 382.685L164.519 382.69L164.53 382.696L164.698 382.771C164.81 382.822 164.949 382.865 165.115 382.901C165.28 382.937 165.38 382.957 165.412 382.96L165.461 382.966H165.558L165.556 382.963L165.553 382.96L165.55 382.958L165.547 382.955L165.545 382.952L165.542 382.95L165.539 382.948L165.537 382.944L165.526 382.939L165.515 382.933L165.513 382.93L165.509 382.928L165.506 382.926L165.504 382.923L165.493 382.917L165.482 382.912L165.48 382.909C165.478 382.907 165.447 382.884 165.387 382.839C165.328 382.794 165.266 382.735 165.201 382.663C165.136 382.591 165.071 382.516 165.006 382.436C164.941 382.357 164.883 382.272 164.833 382.182C164.783 382.092 164.729 381.978 164.673 381.839C164.617 381.701 164.575 381.561 164.546 381.421C164.518 381.28 164.501 381.142 164.498 381.005C164.494 380.868 164.498 380.751 164.509 380.653C164.519 380.556 164.541 380.446 164.573 380.324C164.606 380.201 164.653 380.072 164.714 379.935L164.806 379.73L164.812 379.713L164.817 379.697L164.82 379.695L164.822 379.692L164.825 379.689L164.828 379.686L164.831 379.689L164.833 379.692L164.835 379.695L164.839 379.697L164.842 379.699L164.844 379.703L164.846 379.706L164.849 379.708L164.855 379.719L164.86 379.73L164.863 379.732L164.866 379.735L165.012 379.897C165.109 380.005 165.225 380.126 165.358 380.259C165.491 380.392 165.565 380.461 165.58 380.467C165.594 380.472 165.612 380.489 165.634 380.516C165.656 380.543 165.728 380.607 165.85 380.708C165.973 380.808 166.133 380.925 166.332 381.059C166.53 381.192 166.75 381.323 166.992 381.453C167.234 381.583 167.493 381.7 167.771 381.804C168.049 381.909 168.243 381.977 168.355 382.01C168.467 382.042 168.658 382.083 168.929 382.134C169.199 382.184 169.403 382.217 169.54 382.231C169.677 382.245 169.771 382.254 169.821 382.256L169.897 382.258L169.895 382.242L169.892 382.226L169.87 382.091C169.856 382.001 169.849 381.875 169.849 381.712C169.849 381.55 169.861 381.401 169.886 381.264C169.912 381.127 169.95 380.988 170 380.848C170.05 380.708 170.1 380.595 170.148 380.51C170.197 380.425 170.262 380.329 170.341 380.221C170.42 380.113 170.523 380.002 170.649 379.886C170.775 379.771 170.92 379.668 171.082 379.578C171.244 379.488 171.394 379.42 171.531 379.373C171.668 379.326 171.784 379.296 171.877 379.281C171.971 379.267 172.018 379.258 172.018 379.256Z" fill="white"/>
<rect x="198" y="372.122" width="24" height="24" fill="#C69B7B"/>
<path fill-rule="evenodd" clip-rule="evenodd" d="M204 384.122C204 381.725 204 380.527 204.571 379.664C204.826 379.278 205.156 378.948 205.542 378.693C206.405 378.122 207.603 378.122 210 378.122C212.397 378.122 213.595 378.122 214.458 378.693C214.844 378.948 215.174 379.278 215.429 379.664C216 380.527 216 381.725 216 384.122C216 386.519 216 387.717 215.429 388.58C215.174 388.966 214.844 389.296 214.458 389.551C213.595 390.122 212.397 390.122 210 390.122C207.603 390.122 206.405 390.122 205.542 389.551C205.156 389.296 204.826 388.966 204.571 388.58C204 387.717 204 386.519 204 384.122ZM213.106 384.122C213.106 385.838 211.715 387.228 210 387.228C208.284 387.228 206.894 385.838 206.894 384.122C206.894 382.407 208.284 381.016 210 381.016C211.715 381.016 213.106 382.407 213.106 384.122ZM210 386.178C211.135 386.178 212.055 385.257 212.055 384.122C212.055 382.987 211.135 382.067 210 382.067C208.865 382.067 207.945 382.987 207.945 384.122C207.945 385.257 208.865 386.178 210 386.178ZM213.229 381.59C213.632 381.59 213.959 381.263 213.959 380.86C213.959 380.457 213.632 380.13 213.229 380.13C212.826 380.13 212.499 380.457 212.499 380.86C212.499 381.263 212.826 381.59 213.229 381.59Z" fill="white"/>
<rect x="238" y="372.122" width="24" height="24" fill="#C69B7B"/>
<path d="M244 379.735C244 379.35 244.135 379.033 244.405 378.783C244.676 378.533 245.027 378.408 245.459 378.408C245.884 378.408 246.228 378.531 246.49 378.777C246.761 379.031 246.896 379.362 246.896 379.77C246.896 380.139 246.764 380.447 246.502 380.693C246.232 380.947 245.876 381.074 245.436 381.074H245.425C245 381.074 244.656 380.947 244.394 380.693C244.131 380.439 244 380.12 244 379.735ZM244.151 389.836V382.125H246.722V389.836H244.151ZM248.147 389.836H250.718V385.53C250.718 385.261 250.749 385.053 250.811 384.907C250.919 384.645 251.083 384.424 251.303 384.243C251.523 384.062 251.799 383.972 252.131 383.972C252.996 383.972 253.429 384.553 253.429 385.715V389.836H256V385.415C256 384.276 255.73 383.412 255.189 382.823C254.649 382.235 253.934 381.94 253.046 381.94C252.05 381.94 251.274 382.367 250.718 383.222V383.245H250.707L250.718 383.222V382.125H248.147C248.162 382.371 248.17 383.137 248.17 384.422C248.17 385.707 248.162 387.512 248.147 389.836Z" fill="white"/>
<rect x="278" y="372.122" width="24" height="24" fill="#C69B7B"/>
<path d="M290.292 388.775L287.584 388.725C286.707 388.707 285.828 388.742 284.969 388.56C283.661 388.287 283.568 386.948 283.471 385.825C283.338 384.247 283.39 382.639 283.642 381.074C283.784 380.196 284.344 379.672 285.21 379.615C288.134 379.408 291.077 379.432 293.994 379.529C294.302 379.537 294.612 379.586 294.916 379.641C296.415 379.91 296.452 381.426 296.549 382.703C296.646 383.994 296.605 385.29 296.42 386.572C296.271 387.633 295.987 388.522 294.786 388.608C293.283 388.721 291.813 388.811 290.305 388.782C290.305 388.775 290.297 388.775 290.292 388.775ZM288.7 386.089C289.833 385.424 290.945 384.771 292.072 384.11C290.937 383.445 289.827 382.791 288.7 382.131V386.089Z" fill="white"/>
</svg>
